<?xml version="1.0" encoding="UTF-8"?>
<svg id="Layer_2" data-name="Layer 2" xmlns="http://www.w3.org/2000/svg" viewBox="0 0 374.83 374.83">
  <g id="Layer_1-2" data-name="Layer 1">
    <g>
      <g>
        <path d="M170.81,267.66c-11.67,0-23.05-.92-33.85-2.67l-4.77,15.92-.27.91h70.53c.17,0,.97-2.46,2.42-7.38.82-2.8,1.8-6.14,2.92-9.96-11.6,2.07-24.02,3.18-36.98,3.18Z"/>
        <path d="M246.22,157.12c9.85,8.79,15.52,19.07,15.52,30.04,0,32.49-49.58,58.82-110.74,58.82-29.14,0-55.64-5.98-75.41-15.75,19.31,17.23,54.72,28.78,95.22,28.78,61.16,0,110.74-26.34,110.74-58.82,0-17.01-13.6-32.33-35.33-43.07Z"/>
        <path d="M214.27,212.71c.15-.15.32-.27.49-.42.2.1.36.17.52.25,1.53.82,3.06,1.64,4.58,2.46.44.23.73.35.1.85-2.72,2.15-2.78,4.73-.18,7.03.07.06.15.12.23.18.9-3.06,1.81-6.15,2.71-9.26-1.1-.56-2.2-1.12-3.28-1.71-2.92-1.59-5.98-2.96-8.47-5.22-2.4-2.18-4.12-4.72-4.29-8.11-.2-3.95,1.47-6.92,4.5-9.34,1.29-1.03,2.35-1.23,3.83-.37,1.65.96,3.46,1.62,5.2,2.42.35.16.69.35,1.22.63-1.36.74-2.5,1.35-3.63,1.98-.47.27-.92.58-1.34.91-2.3,1.81-2.44,4.42-.29,6.42,2.25,2.1,4.98,3.45,7.69,4.83.31.16.61.31.92.47.21-.71.41-1.42.62-2.13-.82-.42-1.63-.85-2.46-1.25-.42-.2-.55-.48-.55-.93.03-3.11.05-6.22.06-9.34,0-.67.26-.75.77-.43.03.02.06.03.1.05q3.63,1.63,3.63,5.57c0,.34,0,.67,0,1.01.37-1.26.73-2.51,1.1-3.78.25-.88.5-1.74.76-2.61-.71-.39-1.43-.77-2.16-1.11-4.19-1.96-8.43-3.81-12.62-5.78-3.45-1.62-6.76-3.45-9.49-6.2-2.65-2.68-4.07-5.82-3.87-9.64.23-4.41,3.6-8.27,7.09-8.99,2.99-.61,6.43.45,6.68,4.53.2,3.18-2.65,5.44-5.73,4.84-1.62-.32-2.28.43-1.8,2.04.38,1.29,1.3,2.15,2.31,2.93,2.17,1.69,4.72,2.63,7.26,3.58,4.93,1.84,9.94,3.45,14.63,5.88.22-.74.43-1.49.65-2.23-.98-.5-2-.96-3.05-1.45,1.32-.86,2.68-1.46,4.05-2.01,1.05-3.63,2.09-7.21,3.13-10.8-.24-.38-.45-.79-.58-1.24-.64-2.33.54-4.81,2.61-5.75.47-1.61.93-3.2,1.39-4.76l.18-.62c-.33-.27-.64-.56-.95-.87-2.11-2.21-3.51-4.8-4.12-7.83,1.77,2,4.01,3.35,6.26,4.65l.34-1.15c-1-.5-1.96-1.1-2.88-1.76-.88-.63-1.71-1.33-2.4-2.18-1.01-1.25-1-1.37-.11-2.65.48-.68.85-.84,1.7-.4,1.68.86,3.3,1.84,4.92,2.82.19-.63.37-1.26.56-1.88-1.9-.27-3.68-1.14-5.28-2.12-.43-.27-.29-.47-.01-.74.51-.51,1.03-1.01,1.49-1.57,1.13-1.35,1.11-1.34,2.78-.64.76.32,1.49.69,2.21,1.08.16-.53.31-1.05.47-1.57-.88-.15-1.78-.38-2.68-.7-.82-.3-1.14-.68-.55-1.57.61-.93.94-2.02,1.17-3.12.09-.41.14-.73.77-.52.93.3,1.88.57,2.82.83.11-.35.21-.7.32-1.04-.85-.18-1.68-.45-2.47-.88-.64-.34-.96-.76-.93-1.53.05-1.04,0-2.1-.05-3.14-.04-.79.46-1.25,1.01-1.55,1.66-.9,3.36-1.55,5.11-1.84.14-.48.28-.96.42-1.43-1.7.62-3.52.9-5.18,1.71.85-3.27,3.59-5.79,6.68-6.82.15-.51.3-1.02.44-1.52-3.93,1.72-6.88,4.3-8.75,8.28-.71,1.5-1.33,2.85-1.17,4.65.37,4.15-1.28,7.68-4.04,10.73-.85.94-1.71,1.87-2.52,2.83-1.93,2.28-2.08,4.8-1.03,7.5,1.03,2.63,2.68,4.85,4.53,7.09-2.3,1.14-4.68,1.57-7.09,1.78-1.37.12-1.68-.29-1.67-1.66.04-5.14.06-10.27.42-15.4.13-1.94.83-3.57,2.46-4.72,1.93-1.37,2.83-3.25,2.66-5.59-.28-3.99.44-7.68,2.86-10.97,3.11-4.23,7.14-7.1,12.2-8.51.82-.23,1.64-.44,2.47-.66,1.04-3.56,1.7-5.64,1.98-6.19.34-1.02.08-1.7-.76-2.04-.85-.34-2-.47-3.44-.38-1.44.09-3.02.3-4.71.64-1.7.34-3.06.6-4.07.76l-41.9,7.86s.02,0,.03,0c5.58,1.72,10,4.95,12.94,10.07,1.66,2.9,1.99,6.06,1.77,9.32-.15,2.18.58,4.02,2.32,5.29,2.14,1.57,2.85,3.68,2.93,6.19.16,4.74.22,9.48.22,14.22,0,1.44-.35,1.91-1.82,1.76-2.32-.23-4.65-.54-6.78-1.83,2.33-2.64,4.23-5.36,4.97-8.77.4-1.86,0-3.5-.97-5.07-.77-1.24-1.83-2.24-2.8-3.31-3.28-3.63-4.78-7.85-4.27-12.74.03-.25.1-.49-.03-.74-1.78-3.36-3.39-6.87-6.84-8.9-2.65-1.56-5.53-2.66-8.39-3.78-.27-.11-.55-.21-.82-.32l-2.35.44c1.53.58,3.07,1.17,4.6,1.76.06.02.11.09.25.23-1.6.4-3.05.94-4.27,1.95-.25.21-.48.11-.71.05-2.97-.78-5.95-1.51-8.92-2.29l-3.19.6c4.48,1.2,9.05,2.09,13.6,3.02,2.02.42,3.74,1.48,5.48,2.51.52.31,1.02.64,1.63,1.02-4.33,1.24-8.46.06-12.6-.24-3.49-.25-6.96-.62-10.38-1.37-3.06-.67-6.02-1.55-8.8-2.87l-3.15.59c4.47,1.83,9.07,3.23,13.85,4.08.74.13,1.43.4,2.08.84,2.2,1.52,4.51,2.83,7.41,3.31-2.06.57-3.86,1.23-5.65,1.9-1.21.46-2.43.15-3.63-.02-4.76-.69-9.31-1.95-13.28-4.8-1.77-1.27-3.28-2.75-4.48-4.62l-3.59.67-9.93,30.05,24.95.51-13.17,43.96-8.87,29.61-.94,3.15-2.88,9.61c1.91.05,3.82.09,5.74.09,23.57,0,45.56-4.18,63.07-11.07-3.78-3.85-3.77-9.74.19-13.57ZM228.57,135.93c-1,.98-1.08,2.15-1.06,3.39.07,5.72.03,11.44-.15,17.15-.25,7.74-.12,15.49-.18,23.23,0,1.02-.3,1.04-1.07.69-.82-.38-1.65-.74-2.51-1.02-.96-.31-1.27-.87-1.26-1.9.06-4.92.03-9.84.03-14.76,0-1.56,0-3.11,0-4.67-.28-6.44-.22-12.88-.17-19.32,0-.99-.21-1.81-.86-2.58-.92-1.09-.49-2.03.93-2.24,1.8-.28,3.61-.23,5.4.03,1,.15,1.58,1.34.9,2.01ZM227.84,132.46c-1.05.12-2.09.09-3.25.12-.89-.07-1.9.12-2.9-.12-.75-.18-1.27-.59-1.32-1.36-.05-.79.53-1.18,1.21-1.3,2.14-.39,4.3-.33,6.45-.04.7.09,1.38.48,1.27,1.33-.1.77-.58,1.25-1.45,1.36ZM217.4,120.65c-.01-4.25,3.22-7.56,7.37-7.57,4.19,0,7.57,3.29,7.58,7.38,0,4.3-3.23,7.54-7.52,7.55-4.18,0-7.42-3.21-7.43-7.37ZM211.76,154.81c-2.14,2.46-5.07,3.49-8.11,4.26-.59.15-1.46.36-1.81-.29-.33-.62.4-1.09.79-1.51,1.68-1.81,3.53-3.42,5.71-4.62,2.47-1.37,4.88-2.8,6.82-4.94-.42,2.73-1.63,5.06-3.41,7.1ZM212.86,143.87c.53-.32.71-.19.98.22,1.23,1.83,1.6,1.7-.25,3.46-2.43,2.32-5.16,4.21-8.67,4.51-.18.02-.36.05-.57.07-.97-.15-1.96-.3-2.89-.74-.69-.33-.59-.58-.04-.91,1.87-1.09,3.73-2.2,5.61-3.28,1.94-1.11,3.91-2.17,5.82-3.32ZM210.01,139.55c.73.9,1.49,1.77,2.25,2.64.22.25.38.41-.01.66-2.95,1.91-6.74,3.14-10.54.75,2.37-1.69,4.76-3.14,7.38-4.2.37-.15.63-.22.92.14ZM207.3,133.72c.38,1.36.88,2.66,1.61,3.87.31.51,0,.68-.4.84-3.9,1.55-7.7,1.64-11.45-.86,1.66-1.55,3.6-2.31,5.59-2.96,1.33-.44,2.7-.75,4.02-1.23.49-.18.56.02.65.33ZM195.99,136.91c-.2.21-.53.42-.55.65-.21,1.85-1.84,1.55-2.89,1.72-1.98.32-3.93-.09-5.61-1.5,2.25-1.68,4.59-3.07,7.13-4.11.21-.09.39-.12.61-.02,1.67.81,3.52.88,5.32,1.26-1.54.29-2.91.88-4,2ZM192.86,117.98c3.81-2.34,9.88.21,12.74,6.55-2.36-1.02-4.79-1.25-6.82-2.6-1.98-1.32-3.95-2.64-5.92-3.96ZM204.5,125.34c.43.18.86.38,1.26.63.71.43,1.16.96,1.04,1.93-.12,1.03-.02,2.09,0,3.14.01.51-.11.92-.62,1.15-3.6,1.63-7.19,1.95-10.78,0-.12-.06-.21-.18-.33-.28,1.61-1.3,3.36-2.25,5.38-2.76-2.14-.47-4.1-1.32-6.01-2.28-1.04-.53-1.04-.54-.12-1.17,3.32-2.31,6.73-1.78,10.18-.35ZM181.99,123.75c4.13.19,8.04.37,12.21.56-1.96,1.33-3.7,2.27-5.85,1.97-2.26-.31-4.4-.89-6.36-2.53ZM197.02,129.5c-1.4.56-2.88,1.27-3.86,2.71-.17.25-.4.3-.65.32-3.52.23-6.78-.53-9.7-2.48,4.68-2.91,9.45-3.28,14.2-.55ZM169.43,133.82c-2.65-1.52-4.78-3.57-6.24-6.41,1.69.45,3.39.88,5.07,1.36,3.68,1.03,7.45,1.57,11.22,2.15,1.38.21,2.73.5,4.02,1.15,2.24,1.13,4.67,1.66,7.22,1.67-2.67,2.77-6.86,4.19-10.79,3.62-3.71-.54-7.24-1.67-10.5-3.53ZM171.85,138.82s-.03-.13-.05-.28c4.13.58,8.19.97,12.26.21.61-.11,1.2-.04,1.78.28,3.45,1.92,7,1.96,10.63.56.29-.11.57-.31.93-.15,1.98.9,4.06,1.36,6.46,1.2-2.69,1.92-5.29,3.36-8.46,3.45-3.39.09-6.77.64-10.17.54-5.01-.15-9.34-2.02-13.01-5.42-.13-.12-.26-.25-.37-.39ZM180.69,147.31c2.31-.05,4.59-.05,6.88-.3,3.55-.4,7.01-1.21,10.46-2.07,1.12-.28,2.06-.34,3.18.19,1.65.78,3.45,1.22,5.52,1.05-2.18,1.45-4.34,2.33-6.74,2.73-2.29.38-4.56.92-6.83,1.44,2.01.08,3.97-.41,5.95-.48-2.4,3.47-15.86,1.63-18.42-2.56ZM190.6,154.2c2.83-.39,5.5-1.14,8.03-2.34.34-.16.55,0,.8.13,1.71.88,3.48,1.54,5.65,1.53-5.32,4.39-11,3.78-14.48.67Z"/>
      </g>
      <path d="M187.42,374.83C84.07,374.83,0,290.76,0,187.41S84.07,0,187.42,0s187.41,84.07,187.41,187.41-84.07,187.42-187.41,187.42ZM187.42,5.06C86.86,5.06,5.06,86.86,5.06,187.41s81.81,182.36,182.36,182.36,182.36-81.81,182.36-182.36S287.97,5.06,187.42,5.06ZM187.42,314.11c-69.86,0-126.7-56.84-126.7-126.69s56.84-126.69,126.7-126.69,126.69,56.83,126.69,126.69-56.83,126.69-126.69,126.69ZM187.42,65.78c-67.07,0-121.64,54.57-121.64,121.64s54.57,121.64,121.64,121.64,121.64-54.57,121.64-121.64-54.57-121.64-121.64-121.64Z"/>
      <g>
        <path d="M257.72,325.56c-3.07,1.65-3.7,2.68-3.07,3.84.63,1.18,1.87,1.23,4.91-.41,3.05-1.64,3.69-2.69,3.06-3.87-.61-1.14-1.83-1.21-4.9.44Z"/>
        <path d="M259.06,320.71c-.46-.85-1.31-.81-3.7.47-2.39,1.28-2.89,1.97-2.43,2.82s1.29.82,3.7-.47c2.39-1.28,2.89-1.97,2.43-2.82Z"/>
        <path d="M187.41,11.03C90.15,11.03,11.03,90.15,11.03,187.41s79.13,176.39,176.39,176.39,176.39-79.13,176.39-176.39S284.67,11.03,187.41,11.03ZM350.66,172.49c.48,4.22-1.87,7.42-6.01,7.89-3.03.34-5.43-.94-6.7-3.32l-5.13,4.06-.64-5.63,4.62-3.57-.88-7.69-4.96.57-.55-4.78,18.58-2.12,1.67,14.59ZM347.5,150.79l-3.67,1.08-4.22-14.36-3.64,1.07,4.22,14.36-3.33.98-4.22-14.36-3.64,1.07,4.22,14.36-3.67,1.08-5.57-18.97,17.95-5.27,5.57,18.97ZM329.26,104.49l10.2,20.59-3.62,1.79-4.03-8.14-13.15,6.51-2.13-4.31,13.15-6.51-4.03-8.14,3.62-1.79ZM314.87,84.24l-3.51,18.66,11.21-8.48,2.9,3.84-14.92,11.28-3.95-5.22,3.5-18.62-11.19,8.46-2.9-3.84,14.92-11.28,3.93,5.2ZM305.88,73.72l-2.59,2.81-10.99-10.16-2.58,2.79,10.99,10.15-2.36,2.55-10.99-10.16-2.57,2.79,10.99,10.16-2.59,2.8-14.52-13.42,12.7-13.74,14.52,13.42ZM260.9,50.88c3.34-5.22,8.14-6.17,15.07-1.73,6.28,4.02,7.9,8.42,5.39,13.22l-4.12-2.64c1.25-2.79-.08-5.03-3.45-7.19-4.12-2.64-6.78-2.28-8.84.93-2.07,3.24-1.27,5.85,2.82,8.47,3.35,2.15,5.98,2.4,8.01.08l4.12,2.64c-3.33,4.31-8.02,4.7-14.3.68-6.93-4.44-8.05-9.22-4.7-14.46ZM224.61,27.49l18.97,5.6-1.08,3.66-14.35-4.24-1.08,3.64,14.35,4.24-.98,3.33-14.35-4.24-1.07,3.64,14.35,4.24-1.08,3.66-18.97-5.6,5.3-17.94ZM195.96,23.39l14.59,1.73c4.22.5,6.8,3.52,6.3,7.66-.36,3.03-2.16,5.07-4.77,5.76l2.77,5.93-5.62-.67-2.41-5.32-7.7-.91-.59,4.96-4.77-.57,2.2-18.57ZM172.99,24.11l6.48-.44,10.91,18.01-5.31.36-2.27-3.84-11.17.75-1.73,4.11-5.28.35,8.37-19.31ZM147.85,28.05c7.24-1.79,11.55.05,13.31,5.18l-4.75,1.18c-1.17-2.82-3.7-3.4-7.59-2.44-4.75,1.18-6.33,3.36-5.41,7.07.93,3.73,3.37,4.94,8.09,3.77,3.86-.96,5.86-2.69,5.56-5.76l4.75-1.18c.84,5.38-2.1,9.05-9.34,10.85-7.99,1.98-12.23-.49-13.73-6.53-1.49-6.01,1.11-10.16,9.1-12.14ZM113.91,40.55l1.92,3.3-12.94,7.52,1.91,3.28,12.94-7.51,1.74,3-12.94,7.52,1.91,3.28,12.94-7.52,1.92,3.3-17.1,9.93-9.39-16.18,17.1-9.93ZM73.5,69.32l14.59,4.78-2.8-15.09,4.89-4.28,12.32,14.08-3.62,3.17-8.45-9.65,2.59,14.77-2.61,2.29-14.3-4.53,8.45,9.65-3.62,3.17-12.32-14.08,4.89-4.28ZM56.28,88.6c4.94-6.55,9.81-7.32,14.73-3.61,4.95,3.73,5.56,8.64.62,15.19-4.96,6.57-9.81,7.32-14.78,3.57-4.95-3.73-5.53-8.59-.58-15.16ZM36.74,122.43l6.58,3.2,6.67-13.69-6.58-3.2,2.11-4.32,16.81,8.19-2.1,4.32-6.58-3.2-6.67,13.69,6.58,3.2-2.11,4.32-16.81-8.19,2.1-4.32ZM27.31,150.51l3.99.63-1.41,8.98,14.49,2.28-.75,4.75-14.5-2.28-1.41,8.98-3.99-.63,3.58-22.7ZM23.3,190.96c-.14-7.05,1.54-11.36,6.16-11.45l.09,4.81c-2.06.04-2.52,2.11-2.43,7.1.09,4.73.57,5.84,1.96,5.81,1.44-.03,1.69-1.16,1.9-6.61.26-7.38.57-11.95,5.29-12.05,5-.1,6.1,4.61,6.24,11.53.15,7.66-1.07,12.26-6.46,12.36l-.09-4.81c1.98-.04,2.85-1.66,2.73-7.75-.1-5.05-.69-6.56-2.16-6.53-1.55.03-1.8,1.1-1.97,7.17-.21,8.15-1.43,11.41-5.62,11.49-4.12.08-5.51-4.09-5.64-11.08ZM26.03,216.35c-.85-4.16,1.22-7.55,5.3-8.39,2.99-.61,5.49.46,6.96,2.73l4.76-4.49,1.13,5.55-4.29,3.95,1.54,7.59,4.9-1,.96,4.71-18.33,3.73-2.93-14.4ZM31.34,237.59l17.72-5.99,1.54,4.56-17.72,5.99-1.54-4.56ZM43.41,266.29l-8.47-17.86,3.64-1.73,6.41,13.52,4.3-2.04-5.72-12.07,3.67-1.74,5.72,12.07,5.29-2.51,2.06,4.35-16.9,8.01ZM100.28,308.95l-8.37-7.15-1.81,2.12,8.37,7.15-1.66,1.94-8.37-7.15-1.81,2.12,8.37,7.15-1.83,2.14-11.06-9.45,8.94-10.46,11.06,9.45-1.83,2.14ZM124.1,325.81l-3.08-1.74c.74-1.32-.39-2.39-3.6-4.19-3.03-1.71-3.92-1.82-4.42-.93-.52.93.1,1.5,3.48,3.68,4.58,2.92,7.37,4.83,5.66,7.86-1.8,3.2-5.2,2.15-9.64-.35-4.92-2.77-7.37-5.26-5.42-8.72l3.08,1.74c-.71,1.27-.02,2.43,3.89,4.63,3.24,1.82,4.42,2.01,4.95,1.07.56-.99-.03-1.55-3.81-3.93-5.09-3.18-6.7-5.17-5.18-7.86,1.49-2.64,4.65-1.96,9.14.56,4.52,2.55,6.63,5.22,4.96,8.18ZM151.54,334.4l-6.35-2.07-3.34,10.26-3.36-1.09,3.34-10.26-6.35-2.07.92-2.82,16.07,5.22-.92,2.82ZM163.3,347.65l-3.31-.57.45-2.6,3.31.57-.45,2.6ZM54.75,187.41c0-73.15,59.51-132.67,132.67-132.67s132.67,59.51,132.67,132.67-59.51,132.67-132.67,132.67S54.75,260.57,54.75,187.41ZM199.43,349.27l-.35-2.95,4.7-.56-.75-6.44c-1.33,1.48-3.14,1.7-4.57,1.87l-.35-2.97c2.01-.24,4.69-.56,4.37-3.17l3.51-.42,1.27,10.72,4.69-.56.35,2.95-12.88,1.53ZM233.59,342.81c-3.27,1.01-5.59,1.23-7.29,1.38l-.83-2.69c1.97-.22,4.02-.37,6.46-1.12,2.67-.82,3.97-1.82,3.48-4.59-.77,1.1-2.32,2.28-4.8,3.04-3.83,1.18-6.73.67-7.7-2.51-.94-3.06,1.08-5.37,5.73-6.8,5.64-1.73,8.57-.23,9.87,4.02,1.68,5.45-1.05,8.08-4.93,9.27ZM260.85,331.4c-5.41,2.9-7.82,2.48-9.13.04-.83-1.54-.66-3.06.77-4.63-1.15-.05-2-.56-2.52-1.53-1.17-2.18-.01-4.1,4.18-6.35,4.17-2.24,6.43-2.16,7.6.03.52.97.47,1.96-.12,2.94,2.08-.32,3.46.37,4.29,1.92,1.3,2.43.31,4.7-5.08,7.59ZM290.08,310.86l-2.73,2.26-1.43-1.73-7.48,6.2-1.91-2.3,2.03-12.76,2.72-2.26,5.44,6.57,2.12-1.76,1.91,2.3-2.12,1.76,1.43,1.73ZM312.2,268.48l-3.03-1.9,2.43-3.87,3.03,1.9-2.43,3.87ZM336.15,256.9c-3.15,6.76-7.3,8.95-12.39,7.1l2.07-4.43c2.93.87,4.98-.75,6.67-4.38,2.07-4.43,1.36-7.03-2.1-8.65-3.49-1.63-5.97-.48-8.02,3.93-1.68,3.61-1.59,6.25.98,7.94l-2.07,4.43c-4.71-2.73-5.72-7.33-2.57-14.08,3.48-7.46,8.07-9.21,13.71-6.58,5.62,2.62,7.2,7.25,3.72,14.71ZM347.66,222.17l-16.74,8.95,13.62,3.43-1.17,4.66-18.13-4.56,1.6-6.35,16.71-8.93-13.6-3.42,1.17-4.66,18.13,4.56-1.59,6.32ZM349.93,208.57l-18.58-2.15.55-4.78,18.58,2.15-.55,4.78Z"/>
        <polygon points="279.48 312.86 284.02 309.1 280.84 305.25 279.48 312.86"/>
        <path d="M229.84,332.1c-3.19.98-3.88,2.1-3.46,3.47.42,1.37,1.59,1.9,4.8.91,2.89-.89,3.89-2.06,3.46-3.45-.42-1.37-1.82-1.85-4.81-.93Z"/>
        <path d="M344.11,175.61c2.81-.32,2.56-2.55,2.39-3.98l-.97-8.49-5.6.64.97,8.49c.16,1.43.42,3.66,3.2,3.34Z"/>
        <path d="M32.29,212.68c-2.78.56-2.33,2.76-2.04,4.18l1.7,8.38,5.53-1.12-1.71-8.38c-.29-1.41-.73-3.61-3.48-3.05Z"/>
        <path d="M212.08,32.22c.33-2.81-1.9-3.08-3.33-3.25l-8.49-1.01-.66,5.6,8.49,1.01c1.43.17,3.66.43,3.99-2.35Z"/>
        <path d="M59.76,99.92c3.07,2.32,5.65,1.82,8.66-2.17,3.01-3.99,2.75-6.62-.3-8.92-3.03-2.28-5.6-1.81-8.62,2.2-3.03,4.01-2.8,6.59.25,8.89Z"/>
        <polygon points="176.48 27.44 173.18 35.27 180.77 34.75 176.48 27.44"/>
      </g>
    </g>
  </g>
</svg>