<?xml version="1.0" encoding="UTF-8"?>
<svg id="Layer_2" data-name="Layer 2" xmlns="http://www.w3.org/2000/svg" viewBox="0 0 601.38 127.77">
  <defs>
    <style>
      .cls-1 {
        letter-spacing: .8em;
      }

      .cls-2 {
        letter-spacing: -.07em;
      }

      .cls-3 {
        letter-spacing: .77em;
      }

      .cls-4 {
        letter-spacing: -.03em;
      }

      .cls-5 {
        font-family: Montserrat-Medium, Montserrat;
        font-size: 14.93px;
        font-weight: 500;
      }

      .cls-6 {
        letter-spacing: -.02em;
      }

      .cls-7 {
        letter-spacing: -.01em;
      }

      .cls-8 {
        letter-spacing: .79em;
      }

      .cls-9 {
        letter-spacing: 0em;
      }

      .cls-10 {
        letter-spacing: 0em;
      }

      .cls-11 {
        letter-spacing: .8em;
      }

      .cls-12 {
        font-family: MonumentExtended-Regular, 'Monument Extended';
        font-size: 55.44px;
      }

      .cls-13 {
        letter-spacing: -.02em;
      }
    </style>
  </defs>
  <g id="Layer_1-2" data-name="Layer 1">
    <g>
      <path d="M68,117.65c-8.34,0-16.46-.65-24.18-1.9l-3.41,11.37-.19.65h50.37c.12,0,.7-1.76,1.73-5.27.59-2,1.28-4.38,2.09-7.11-8.28,1.48-17.15,2.27-26.41,2.27Z"/>
      <path d="M99.89,84.33h-.36v.16c.12-.05.24-.11.36-.16Z"/>
      <path d="M121.86,38.71c7.04,6.28,11.08,13.62,11.08,21.45,0,23.2-35.41,42.01-79.08,42.01-20.81,0-39.74-4.27-53.86-11.25,13.79,12.31,39.08,20.55,68,20.55,43.68,0,79.08-18.81,79.08-42.01,0-12.15-9.71-23.09-25.23-30.76Z"/>
      <text class="cls-12" transform="translate(151.97 75.08)"><tspan class="cls-6" x="0" y="0">F</tspan><tspan class="cls-10" x="44.3" y="0">I</tspan><tspan class="cls-4" x="58.71" y="0">R</tspan><tspan class="cls-2" x="106.78" y="0">S</tspan><tspan class="cls-9" x="156.35" y="0">T </tspan><tspan class="cls-13" x="233.02" y="0">H</tspan><tspan class="cls-7" x="288.46" y="0">O</tspan><tspan class="cls-10" x="340.3" y="0">M</tspan><tspan x="404.17" y="0">E</tspan></text>
      <g>
        <polygon points="199.6 108.21 209.69 108.21 204.66 98.15 199.6 108.21"/>
        <path d="M473.73,98.79h-11.33v7.47h11.33c1.91,0,4.89,0,4.89-3.72s-2.98-3.75-4.89-3.75Z"/>
        <path d="M241,98.79h-11.33v7.47h11.33c1.91,0,4.89,0,4.89-3.72s-2.97-3.75-4.89-3.75Z"/>
        <path d="M152.73,84.33c-7.78,15.44-27.47,27.64-53.2,33.18v8.9h501.85v-42.08H152.73ZM173.96,118.59c-10.91,0-15.58-4.53-15.58-12.78s4.67-12.71,15.58-12.71c9.88,0,14.84,3.75,15.48,10.91h-6.48c-.6-4-3.68-5.56-9-5.56-6.48,0-9.21,2.3-9.21,7.37s2.76,7.44,9.21,7.44c5.28,0,8.39-1.59,9-5.63h6.48c-.64,7.19-5.59,10.98-15.48,10.98ZM214.72,118.23l-2.66-5.28h-14.84l-2.66,5.28h-7.01l12.79-24.79h8.61l12.82,24.79h-7.05ZM251.44,118.23h-7.51l-4-6.62h-10.27v6.62h-6.37v-24.79h19.48c5.63,0,9.49,3.58,9.49,9.1,0,4.04-2.05,7.01-5.38,8.32l4.57,7.37ZM280.55,98.51h-19.83v5.03h19.83v4.6h-19.83v5.03h19.83v5.06h-26.21v-24.79h26.21v5.06ZM314.65,113.24c5.28,0,8.39-1.59,9-5.63h6.48c-.64,7.19-5.6,10.98-15.48,10.98-10.91,0-15.58-4.53-15.58-12.78s4.67-12.71,15.58-12.71c9.88,0,14.84,3.75,15.48,10.91h-6.48c-.6-4-3.68-5.56-9-5.56-6.48,0-9.21,2.3-9.21,7.37s2.76,7.44,9.21,7.44ZM358.64,98.51h-19.83v5.03h19.83v4.6h-19.83v5.03h19.83v5.06h-26.21v-24.79h26.21v5.06ZM392.88,118.23h-8.68l-16.89-18.59v18.59h-6.37v-24.79h8.64l16.93,18.63v-18.63h6.38v24.79ZM425.43,98.79h-12.04v19.44h-6.38v-19.44h-12.04v-5.35h30.46v5.35ZM453.72,98.51h-19.83v5.03h19.83v4.6h-19.83v5.03h19.83v5.06h-26.21v-24.79h26.21v5.06ZM484.17,118.23h-7.51l-4-6.62h-10.27v6.62h-6.38v-24.79h19.48c5.63,0,9.49,3.58,9.49,9.1,0,4.04-2.05,7.01-5.38,8.32l4.57,7.37ZM493.35,118.23l-2.87,6.98h-2.9l1.81-6.98h-2.09v-4.75h6.06v4.75ZM518.95,118.23h-6.38v-24.79h6.38v24.79ZM553.72,118.23h-8.68l-16.89-18.59v18.59h-6.38v-24.79h8.64l16.93,18.63v-18.63h6.38v24.79ZM571.43,113.24c5.28,0,8.39-1.59,9-5.63h6.48c-.64,7.19-5.59,10.98-15.48,10.98-10.91,0-15.58-4.53-15.58-12.78s4.67-12.71,15.58-12.71c9.88,0,14.84,3.75,15.48,10.91h-6.48c-.6-4-3.68-5.56-9-5.56-6.48,0-9.21,2.3-9.21,7.37s2.76,7.44,9.21,7.44ZM594.62,118.23h-6.06v-4.75h6.06v4.75Z"/>
      </g>
      <text class="cls-5" transform="translate(434.32 30.58)"><tspan class="cls-11" x="0" y="0">E</tspan><tspan class="cls-8" x="21.94" y="0">S</tspan><tspan class="cls-3" x="43.01" y="0">T</tspan><tspan class="cls-1" x="63.23" y="0">. 1984</tspan></text>
      <path d="M99.03,78.41c.11-.1.23-.19.35-.3.14.07.26.12.37.18,1.09.59,2.18,1.17,3.27,1.76.31.17.52.25.07.61-1.94,1.54-1.98,3.38-.13,5.02.05.05.11.08.16.13.64-2.19,1.29-4.39,1.94-6.61-.78-.4-1.57-.8-2.34-1.22-2.08-1.14-4.27-2.11-6.05-3.73-1.71-1.56-2.94-3.37-3.07-5.79-.14-2.82,1.05-4.94,3.21-6.67.92-.74,1.68-.88,2.74-.27,1.18.68,2.47,1.16,3.72,1.73.25.12.49.25.87.45-.97.53-1.79.96-2.59,1.42-.34.19-.66.41-.96.65-1.64,1.29-1.74,3.15-.2,4.59,1.6,1.5,3.56,2.47,5.49,3.45.22.11.44.22.66.34.15-.51.29-1.01.44-1.52-.58-.3-1.17-.61-1.76-.89-.3-.14-.4-.34-.39-.66.02-2.22.04-4.45.04-6.67,0-.48.18-.53.55-.31.02.01.05.02.07.03q2.59,1.16,2.59,3.98c0,.24,0,.48,0,.72.26-.9.52-1.79.78-2.7.18-.63.36-1.24.54-1.86-.51-.28-1.02-.55-1.54-.79-2.99-1.4-6.02-2.72-9.02-4.13-2.46-1.16-4.83-2.47-6.78-4.43-1.89-1.91-2.91-4.15-2.77-6.88.17-3.15,2.57-5.91,5.06-6.42,2.13-.44,4.59.32,4.77,3.24.14,2.27-1.89,3.89-4.09,3.46-1.16-.23-1.63.3-1.29,1.46.27.92.93,1.53,1.65,2.09,1.55,1.21,3.37,1.88,5.19,2.56,3.52,1.31,7.1,2.47,10.45,4.2.15-.53.31-1.07.46-1.6-.7-.35-1.43-.69-2.18-1.03.94-.61,1.91-1.04,2.89-1.44.75-2.59,1.49-5.15,2.24-7.71-.17-.27-.32-.56-.41-.89-.46-1.66.38-3.44,1.86-4.1.33-1.15.67-2.28.99-3.4l.13-.45c-.23-.19-.46-.4-.68-.62-1.51-1.58-2.51-3.43-2.94-5.59,1.27,1.43,2.86,2.39,4.47,3.32l.24-.82c-.72-.35-1.4-.79-2.06-1.26-.63-.45-1.22-.95-1.71-1.56-.72-.89-.72-.97-.08-1.89.34-.49.61-.6,1.22-.28,1.2.62,2.36,1.32,3.52,2.01.13-.45.27-.9.4-1.34-1.36-.19-2.63-.81-3.77-1.51-.31-.19-.2-.34-.01-.53.36-.36.73-.72,1.07-1.12.81-.96.79-.95,1.99-.46.54.23,1.06.49,1.58.77.11-.38.22-.75.34-1.12-.63-.11-1.27-.27-1.91-.5-.59-.21-.81-.48-.4-1.12.44-.66.67-1.44.84-2.23.06-.29.1-.52.55-.37.67.21,1.34.4,2.01.6.08-.25.15-.5.23-.74-.61-.13-1.2-.32-1.76-.63-.46-.25-.69-.54-.66-1.09.03-.75,0-1.5-.04-2.24-.03-.56.33-.9.72-1.11,1.18-.64,2.4-1.11,3.65-1.31.1-.35.2-.69.3-1.02-1.21.44-2.51.64-3.7,1.22.61-2.33,2.56-4.13,4.77-4.87.11-.37.21-.73.31-1.08-2.81,1.23-4.91,3.07-6.25,5.91-.5,1.07-.95,2.04-.83,3.32.26,2.96-.91,5.49-2.88,7.66-.61.67-1.22,1.33-1.8,2.02-1.38,1.63-1.49,3.42-.73,5.36.73,1.88,1.91,3.46,3.24,5.06-1.65.82-3.34,1.12-5.06,1.27-.98.09-1.2-.21-1.19-1.19.03-3.67.05-7.34.3-11,.09-1.39.59-2.55,1.76-3.37,1.38-.98,2.02-2.32,1.9-3.99-.2-2.85.31-5.48,2.04-7.83,2.22-3.02,5.1-5.07,8.72-6.08.59-.16,1.17-.32,1.76-.47.74-2.54,1.22-4.03,1.41-4.42.24-.73.06-1.21-.55-1.45-.61-.24-1.43-.33-2.46-.27-1.03.06-2.15.21-3.36.45-1.21.24-2.18.43-2.91.55l-29.92,5.61s.01,0,.02,0c3.98,1.23,7.14,3.54,9.24,7.19,1.19,2.07,1.42,4.33,1.27,6.66-.11,1.56.42,2.87,1.66,3.78,1.53,1.12,2.04,2.63,2.1,4.42.11,3.38.15,6.77.16,10.16,0,1.03-.25,1.36-1.3,1.26-1.66-.17-3.32-.39-4.84-1.31,1.67-1.88,3.02-3.83,3.55-6.26.29-1.33,0-2.5-.69-3.62-.55-.89-1.31-1.6-2-2.36-2.34-2.59-3.41-5.61-3.05-9.1.02-.18.07-.35-.02-.53-1.27-2.4-2.42-4.91-4.89-6.36-1.89-1.11-3.95-1.9-5.99-2.7-.19-.08-.39-.15-.58-.23l-1.68.31c1.1.42,2.19.83,3.28,1.26.04.02.08.07.18.16-1.14.29-2.18.67-3.05,1.4-.18.15-.35.08-.51.03-2.12-.56-4.25-1.08-6.37-1.64l-2.28.43c3.2.86,6.46,1.49,9.71,2.16,1.44.3,2.67,1.06,3.91,1.8.37.22.73.45,1.16.73-3.1.89-6.04.04-9-.17-2.49-.18-4.97-.44-7.41-.98-2.18-.48-4.3-1.11-6.28-2.05l-2.25.42c3.19,1.31,6.48,2.3,9.89,2.91.53.09,1.02.28,1.48.6,1.57,1.09,3.22,2.02,5.29,2.36-1.47.41-2.76.88-4.04,1.36-.86.33-1.73.11-2.59-.01-3.4-.49-6.65-1.39-9.49-3.43-1.26-.91-2.35-1.96-3.2-3.3l-2.57.48-7.09,21.46,17.82.36-9.41,31.39-6.34,21.15-.67,2.25-2.06,6.86c1.36.04,2.73.06,4.1.06,16.83,0,32.54-2.99,45.04-7.9-2.7-2.75-2.69-6.95.13-9.69ZM109.25,23.58c-.72.7-.77,1.53-.76,2.42.05,4.08.02,8.17-.11,12.25-.18,5.53-.08,11.06-.13,16.59,0,.73-.22.75-.77.49-.58-.27-1.18-.53-1.79-.73-.69-.22-.91-.62-.9-1.35.04-3.51.02-7.03.02-10.54,0-1.11,0-2.22,0-3.33-.2-4.6-.16-9.2-.12-13.8,0-.71-.15-1.29-.62-1.84-.66-.78-.35-1.45.67-1.6,1.29-.2,2.58-.17,3.86.02.71.1,1.13.96.64,1.44ZM108.73,21.1c-.75.09-1.49.06-2.32.09-.64-.05-1.36.09-2.07-.08-.53-.13-.91-.42-.95-.97-.04-.57.38-.84.86-.93,1.53-.28,3.07-.24,4.6-.03.5.07.99.35.91.95-.07.55-.42.9-1.03.97ZM101.27,12.66c0-3.03,2.3-5.4,5.26-5.4,3,0,5.41,2.35,5.41,5.27,0,3.07-2.3,5.39-5.37,5.39-2.98,0-5.3-2.29-5.31-5.26ZM97.24,37.06c-1.53,1.76-3.62,2.49-5.79,3.05-.42.11-1.04.26-1.29-.21-.24-.44.28-.78.57-1.08,1.2-1.29,2.52-2.44,4.08-3.3,1.76-.98,3.48-2,4.87-3.53-.3,1.95-1.16,3.61-2.43,5.07ZM98.03,29.25c.38-.23.51-.14.7.16.88,1.31,1.14,1.21-.18,2.47-1.74,1.66-3.68,3.01-6.19,3.22-.13.01-.26.03-.41.05-.69-.11-1.4-.21-2.06-.53-.5-.24-.42-.42-.03-.65,1.33-.78,2.67-1.57,4.01-2.34,1.38-.8,2.8-1.55,4.16-2.37ZM95.99,26.16c.52.64,1.06,1.26,1.61,1.88.16.18.27.29,0,.47-2.11,1.36-4.81,2.24-7.53.54,1.69-1.2,3.4-2.24,5.27-3,.27-.11.45-.16.66.1ZM94.06,22c.27.97.63,1.9,1.15,2.77.22.37,0,.49-.29.6-2.79,1.1-5.5,1.17-8.18-.61,1.18-1.11,2.57-1.65,3.99-2.11.95-.31,1.93-.53,2.87-.88.35-.13.4.01.46.23ZM85.98,24.27c-.14.15-.38.3-.39.47-.15,1.32-1.31,1.11-2.07,1.23-1.42.23-2.81-.07-4.01-1.07,1.6-1.2,3.28-2.19,5.09-2.93.15-.06.28-.09.44-.01,1.19.58,2.51.63,3.8.9-1.1.21-2.07.63-2.86,1.43ZM83.75,10.76c2.72-1.67,7.06.15,9.1,4.68-1.69-.73-3.42-.89-4.87-1.86-1.41-.94-2.82-1.88-4.23-2.83ZM92.05,16.01c.31.13.61.27.9.45.51.31.83.69.75,1.38-.09.74-.01,1.5,0,2.24,0,.37-.08.65-.44.82-2.57,1.17-5.13,1.39-7.7,0-.09-.05-.15-.13-.23-.2,1.15-.93,2.4-1.6,3.84-1.97-1.53-.34-2.93-.94-4.29-1.63-.74-.38-.74-.38-.09-.84,2.37-1.65,4.81-1.27,7.27-.25ZM75.98,14.88c2.95.14,5.74.26,8.72.4-1.4.95-2.64,1.62-4.18,1.41-1.62-.22-3.14-.64-4.54-1.81ZM86.71,18.98c-1,.4-2.05.91-2.75,1.94-.12.18-.29.22-.46.23-2.51.16-4.84-.38-6.93-1.77,3.34-2.08,6.75-2.34,10.14-.39ZM67.01,22.07c-1.89-1.08-3.41-2.55-4.45-4.58,1.21.32,2.42.63,3.62.97,2.63.74,5.32,1.12,8.01,1.54.98.15,1.95.36,2.87.82,1.6.81,3.34,1.18,5.15,1.19-1.91,1.98-4.9,2.99-7.7,2.58-2.65-.39-5.17-1.19-7.5-2.52ZM68.74,25.64s-.02-.09-.04-.2c2.95.41,5.85.69,8.76.15.43-.08.86-.03,1.27.2,2.46,1.37,5,1.4,7.59.4.21-.08.41-.22.66-.1,1.41.64,2.9.97,4.62.86-1.92,1.37-3.78,2.4-6.04,2.46-2.42.07-4.84.45-7.26.38-3.58-.1-6.67-1.44-9.29-3.87-.09-.09-.18-.18-.26-.28ZM75.06,31.71c1.65-.04,3.28-.03,4.91-.22,2.53-.28,5-.87,7.47-1.48.8-.2,1.47-.24,2.27.14,1.18.56,2.47.87,3.94.75-1.56,1.03-3.1,1.67-4.81,1.95-1.64.27-3.25.66-4.88,1.03,1.43.06,2.83-.29,4.25-.34-1.71,2.48-11.33,1.16-13.15-1.83ZM82.13,36.62c2.02-.28,3.93-.81,5.73-1.67.24-.11.39,0,.57.09,1.22.63,2.49,1.1,4.04,1.1-3.8,3.13-7.86,2.7-10.34.48Z"/>
    </g>
  </g>
</svg>