<?xml version="1.0" encoding="UTF-8"?>
<svg id="Layer_2" data-name="Layer 2" xmlns="http://www.w3.org/2000/svg" xmlns:xlink="http://www.w3.org/1999/xlink" viewBox="0 0 601.38 130.09">
  <defs>
    <style>
      .cls-1 {
        letter-spacing: .8em;
      }

      .cls-2 {
        fill: #174972;
      }

      .cls-3 {
        letter-spacing: -.12em;
      }

      .cls-4 {
        letter-spacing: -.01em;
      }

      .cls-5 {
        letter-spacing: -.07em;
      }

      .cls-6 {
        letter-spacing: -.02em;
      }

      .cls-7 {
        letter-spacing: .77em;
      }

      .cls-8 {
        letter-spacing: -.03em;
      }

      .cls-9 {
        fill: none;
      }

      .cls-10 {
        letter-spacing: -.02em;
      }

      .cls-11 {
        fill: #fff;
        font-size: 35.41px;
      }

      .cls-11, .cls-12 {
        font-family: MonumentExtended-Regular, 'Monument Extended';
      }

      .cls-13 {
        letter-spacing: -.02em;
      }

      .cls-14 {
        fill: #5b5b5b;
        font-family: Montserrat-Medium, Montserrat;
        font-size: 14.93px;
        font-weight: 500;
      }

      .cls-15 {
        letter-spacing: -.01em;
      }

      .cls-16 {
        letter-spacing: 0em;
      }

      .cls-17 {
        letter-spacing: -.03em;
      }

      .cls-18, .cls-12 {
        fill: #1794d3;
      }

      .cls-19 {
        letter-spacing: .79em;
      }

      .cls-20 {
        letter-spacing: -.03em;
      }

      .cls-12 {
        font-size: 55.44px;
      }

      .cls-21 {
        opacity: .28;
      }

      .cls-22 {
        letter-spacing: 0em;
      }

      .cls-23 {
        letter-spacing: 0em;
      }

      .cls-24 {
        letter-spacing: 0em;
      }

      .cls-25 {
        letter-spacing: .8em;
      }

      .cls-26 {
        clip-path: url(#clippath);
      }

      .cls-27 {
        letter-spacing: -.01em;
      }

      .cls-28 {
        letter-spacing: -.02em;
      }
    </style>
    <clipPath id="clippath">
      <path class="cls-9" d="M58.82,65.69l-6.34,21.15-.67,2.25-2.06,6.86c1.36.04,2.73.06,4.1.06,18.7,0,36.03-3.68,49.1-9.61,1.95-6.62,3.92-13.37,5.91-20.28,2.24-7.76,4.46-15.39,6.64-22.91.47-1.63.93-3.21,1.39-4.76l1.97-6.69c.92-3.1,1.8-6.04,2.64-8.82,1.82-6,3.27-10.91,4.36-14.73,1.09-3.82,1.76-5.97,2-6.46.24-.73.06-1.21-.55-1.45-.61-.24-1.43-.33-2.46-.27-1.03.06-2.15.21-3.36.45-1.21.24-2.18.43-2.91.55l-61.1,11.46-7.09,21.46,17.82.36-9.41,31.39Z"/>
    </clipPath>
  </defs>
  <g id="Layer_1-2" data-name="Layer 1">
    <g>
      <g>
        <path class="cls-2" d="M99.89,84.33h-.36v.16c.12-.05.24-.11.36-.16Z"/>
        <path class="cls-2" d="M152.73,84.33c-7.78,15.44-27.47,27.64-53.2,33.18v8.9h501.85v-42.08H152.73Z"/>
      </g>
      <text class="cls-12" transform="translate(151.97 75.08)"><tspan class="cls-10" x="0" y="0">F</tspan><tspan class="cls-23" x="44.3" y="0">I</tspan><tspan class="cls-8" x="58.71" y="0">R</tspan><tspan class="cls-5" x="106.78" y="0">S</tspan><tspan class="cls-22" x="156.35" y="0">T </tspan><tspan class="cls-28" x="233.02" y="0">H</tspan><tspan class="cls-15" x="288.46" y="0">O</tspan><tspan class="cls-23" x="340.3" y="0">M</tspan><tspan x="404.17" y="0">E</tspan></text>
      <text class="cls-11" transform="translate(157.21 118.23)"><tspan class="cls-3" x="0" y="0">C</tspan><tspan class="cls-20" x="29.18" y="0">A</tspan><tspan class="cls-13" x="64.56" y="0">R</tspan><tspan x="95.61" y="0">E </tspan><tspan class="cls-27" x="140.69" y="0">CE</tspan><tspan class="cls-13" x="202.2" y="0">NT</tspan><tspan class="cls-4" x="268.78" y="0">ER</tspan><tspan class="cls-24" x="328.56" y="0">, </tspan><tspan class="cls-16" x="353.84" y="0">I</tspan><tspan class="cls-6" x="363.05" y="0">N</tspan><tspan class="cls-17" x="397.47" y="0">C</tspan><tspan x="429.83" y="0">.</tspan></text>
      <text class="cls-14" transform="translate(434.32 30.58)"><tspan class="cls-25" x="0" y="0">E</tspan><tspan class="cls-19" x="21.94" y="0">S</tspan><tspan class="cls-7" x="43.01" y="0">T</tspan><tspan class="cls-1" x="63.23" y="0">. 1984</tspan></text>
      <g>
        <path class="cls-18" d="M68,117.65c-8.34,0-16.46-.65-24.18-1.9l-3.41,11.37-.19.65h50.37c.12,0,.7-1.76,1.73-5.27.59-2,1.28-4.38,2.09-7.11-8.28,1.48-17.15,2.27-26.41,2.27Z"/>
        <path class="cls-18" d="M58.82,65.69l-6.34,21.15-.67,2.25-2.06,6.86c1.36.04,2.73.06,4.1.06,18.7,0,36.03-3.68,49.1-9.61,1.95-6.62,3.92-13.37,5.91-20.28,2.24-7.76,4.46-15.39,6.64-22.91.47-1.63.93-3.21,1.39-4.76l1.97-6.69c.92-3.1,1.8-6.04,2.64-8.82,1.82-6,3.27-10.91,4.36-14.73,1.09-3.82,1.76-5.97,2-6.46.24-.73.06-1.21-.55-1.45-.61-.24-1.43-.33-2.46-.27-1.03.06-2.15.21-3.36.45-1.21.24-2.18.43-2.91.55l-61.1,11.46-7.09,21.46,17.82.36-9.41,31.39Z"/>
        <path class="cls-2" d="M121.86,38.71c7.04,6.28,11.08,13.62,11.08,21.45,0,23.2-35.41,42.01-79.08,42.01-20.81,0-39.74-4.27-53.86-11.25,13.79,12.31,39.08,20.55,68,20.55,43.68,0,79.08-18.81,79.08-42.01,0-12.15-9.71-23.09-25.23-30.76Z"/>
        <g class="cls-21">
          <g class="cls-26">
            <g>
              <path class="cls-2" d="M119.54,68.5c-.04,2.33-1.28,4.32-3.13,5.99-.78.71-1.66,1.32-2.59,1.83-.24.13-.39.22-.67.02-1.2-.85-2.42-1.66-3.66-2.46-.39-.25-.3-.35.03-.56.99-.65,2.03-1.24,2.9-2.06,1.69-1.58,1.66-3.47-.1-5-1.34-1.16-2.86-2.04-4.45-2.79-2.99-1.4-6.02-2.72-9.02-4.13-2.46-1.16-4.83-2.47-6.78-4.43-1.89-1.91-2.91-4.15-2.77-6.88.17-3.15,2.57-5.91,5.06-6.42,2.13-.44,4.59.32,4.77,3.24.14,2.27-1.89,3.89-4.09,3.46-1.16-.23-1.63.3-1.29,1.46.27.92.93,1.53,1.65,2.09,1.55,1.21,3.37,1.88,5.19,2.56,3.94,1.47,7.96,2.73,11.63,4.84,1.97,1.13,3.91,2.29,5.44,4.04,1.25,1.43,1.82,3.09,1.86,5.22Z"/>
              <path class="cls-2" d="M116.24,38.82c-1.65.82-3.34,1.12-5.06,1.27-.98.09-1.2-.21-1.19-1.19.03-3.67.05-7.34.3-11,.09-1.39.59-2.55,1.76-3.37,1.38-.98,2.02-2.32,1.9-3.99-.2-2.85.31-5.48,2.04-7.83,2.22-3.02,5.1-5.07,8.72-6.08,4.33-1.21,8.72-2.19,12.95-3.74,5.73-2.1,11.17-4.73,15.98-8.55.87-.69,1.69-1.44,2.46-2.24.13-.14.26-.43.47-.29.26.16.06.42-.04.61-.86,1.78-2.13,3.22-3.66,4.45-3.72,2.99-7.99,5.02-12.32,6.92-4.66,2.04-9.51,3.57-14.26,5.37-3.2,1.22-5.56,3.14-7.02,6.24-.5,1.07-.95,2.04-.83,3.32.26,2.96-.91,5.49-2.88,7.66-.61.67-1.22,1.33-1.8,2.02-1.38,1.63-1.49,3.42-.73,5.36.73,1.88,1.91,3.46,3.24,5.06Z"/>
              <path class="cls-2" d="M96.97,38.79c1.67-1.88,3.02-3.83,3.55-6.26.29-1.33,0-2.5-.69-3.62-.55-.89-1.31-1.6-2-2.36-2.34-2.59-3.41-5.61-3.05-9.1.02-.18.07-.35-.02-.53-1.27-2.4-2.42-4.91-4.89-6.36-1.89-1.11-3.95-1.9-5.99-2.7-6.15-2.41-12.35-4.72-18.07-8.08-2.37-1.39-4.63-2.92-6.45-5.03-.66-.77-1.22-1.6-1.63-2.53-.06-.14-.22-.34.02-.47.18-.09.28.1.38.2C63.41-2.96,69.81.2,76.56,2.8c3.97,1.53,8.08,2.59,12.14,3.83,3.98,1.23,7.14,3.54,9.24,7.19,1.19,2.07,1.42,4.33,1.27,6.66-.11,1.56.42,2.87,1.66,3.78,1.53,1.12,2.04,2.63,2.1,4.42.11,3.38.15,6.77.16,10.16,0,1.03-.25,1.36-1.3,1.26-1.66-.17-3.32-.39-4.84-1.31Z"/>
              <path class="cls-2" d="M104.15,63.69c-.97.53-1.79.96-2.59,1.42-.34.19-.66.41-.96.65-1.64,1.29-1.74,3.15-.2,4.59,1.6,1.5,3.56,2.47,5.49,3.45,2.77,1.41,5.5,2.88,7.8,4.99,3.45,3.17,2.87,8.25-1.3,11.02-.26.17-.4.12-.61-.04-.8-.62-1.58-1.24-2.41-1.82-.36-.25-.24-.36.02-.54,2.69-1.99,2.03-4.1-.2-5.78-2-1.5-4.29-2.47-6.46-3.66-2.08-1.14-4.27-2.11-6.05-3.73-1.71-1.56-2.94-3.37-3.07-5.79-.14-2.82,1.05-4.94,3.21-6.67.92-.74,1.68-.88,2.74-.27,1.18.68,2.47,1.16,3.72,1.73.25.12.49.25.87.45Z"/>
              <path class="cls-2" d="M99.38,78.11c.14.07.26.12.37.18,1.09.59,2.18,1.17,3.27,1.76.31.17.52.25.07.61-1.94,1.54-1.98,3.38-.13,5.02,1.44,1.27,3.16,2.14,4.79,3.14,1.37.84,2.69,1.73,3.95,2.73,3.18,2.52,3.51,7.04-.68,9.8-.36.23-.62.23-.96-.05-.49-.41-1.02-.79-1.57-1.13-.4-.26-.49-.4-.06-.75.71-.6,1.33-1.28,1.55-2.25.17-.78-.04-1.42-.56-2-1.16-1.3-2.69-2.07-4.17-2.91-2.01-1.15-4.11-2.17-5.89-3.7-3.16-2.72-3.31-7.24-.33-10.13.11-.1.23-.19.35-.3Z"/>
              <path class="cls-2" d="M104.82,39.37c-.2-4.6-.16-9.2-.12-13.8,0-.71-.15-1.29-.62-1.84-.66-.78-.35-1.45.67-1.6,1.29-.2,2.58-.17,3.86.02.71.1,1.13.96.64,1.44-.72.7-.77,1.53-.76,2.42.05,4.08.02,8.17-.11,12.25-.18,5.53-.08,11.06-.13,16.59,0,.73-.22.75-.77.49-.58-.27-1.18-.53-1.79-.73-.69-.22-.91-.62-.9-1.35.04-3.51.02-7.03.02-10.54,0-1.11,0-2.22,0-3.33Z"/>
              <path class="cls-2" d="M109.33,55.98c1.55-1.01,3.2-1.55,4.8-2.19,1.34-.54,2.7-1.04,3.83-1.98.68-.57,1.29-1.2,1.5-2.1.26-1.11-.35-1.72-1.43-1.45-1.72.43-3.5-.6-3.98-2.32-.49-1.78.5-3.71,2.18-4.24,2.11-.67,4.52.21,6.06,2.23,2.13,2.79,2.08,6.82-.12,9.8-1.56,2.12-3.72,3.44-6.01,4.65-.92.49-1.6.51-2.5-.11-1.31-.91-2.77-1.57-4.33-2.29Z"/>
              <path class="cls-2" d="M157.58-5.01c-.03,2.95-.99,5.26-2.89,7.18-1.72,1.73-3.79,2.92-6.01,3.88-3.47,1.48-7.11,2.4-10.74,3.36-2.01.53-4.04.99-6.05,1.47-.17.04-.36.17-.5,0-.71-.88-1.76-1.16-2.91-1.59,1.92-.7,3.7-1.41,5.52-2.02,7.3-2.44,14.27-5.55,20.63-9.92.97-.67,1.89-1.4,2.95-2.35Z"/>
              <path class="cls-2" d="M85.08,9.37c-1.14.29-2.18.67-3.05,1.4-.18.15-.35.08-.51.03-5.07-1.33-10.2-2.44-15.07-4.42-2.43-.99-4.71-2.24-6.6-4.1-1.71-1.68-2.8-3.68-3.09-6.08-.02-.2.01-.41.03-.62.01-.15-.04-.34.15-.4.17-.06.28.09.4.19,5,4.34,10.89,7.15,16.91,9.68,3.51,1.48,7.1,2.78,10.65,4.16.04.02.08.07.18.16Z"/>
              <path class="cls-2" d="M125.97,14.25c2.29-1.84,4.95-2.51,7.73-2.99,4.91-.84,9.73-2.07,14.4-3.83,2.1-.79,4.17-1.66,6.13-2.77.85-.48,1.61-1.08,2.45-1.71.08.54-.17.94-.32,1.35-.92,2.48-2.66,4.26-4.87,5.63-3.03,1.88-6.38,2.88-9.86,3.45-2.97.48-5.98.76-8.98.98-.82.06-1.64.17-2.46.26-1.42.16-2.82-.01-4.23-.38Z"/>
              <path class="cls-2" d="M87.66,14.27c-3.1.89-6.04.04-9-.17-2.49-.18-4.97-.44-7.41-.98-3.73-.82-7.3-2.05-10.26-4.6-1.69-1.45-2.87-3.21-3.34-5.39.18-.15.29-.06.39.01,3.12,2.39,6.75,3.74,10.39,5.07,4.6,1.68,9.4,2.56,14.17,3.55,1.44.3,2.67,1.06,3.91,1.8.37.22.73.45,1.16.73Z"/>
              <path class="cls-2" d="M106.58,17.93c-2.98,0-5.3-2.29-5.31-5.26,0-3.03,2.3-5.4,5.26-5.4,3,0,5.41,2.35,5.41,5.27,0,3.07-2.3,5.39-5.37,5.39Z"/>
              <path class="cls-2" d="M110.36,111.81c-.39-.32-.75-.66-1.15-.94-.52-.36-.96-.54-.28-1.32,1.03-1.18.71-2.6-.62-3.74-1.46-1.25-3.2-2.08-4.79-3.13-1.4-.92-2.84-1.79-3.83-3.21-1.62-2.3-1.36-5.62.61-7.63.23-.23.41-.27.67-.12.84.5,1.68,1,2.53,1.49.26.15.3.28.07.51-1.52,1.52-1.27,3.61.53,5.11,1.66,1.37,3.58,2.36,5.3,3.63,1.04.77,2.1,1.51,2.75,2.68,1.2,2.14.57,4.78-1.5,6.52-.07.06-.17.1-.28.17Z"/>
              <path class="cls-2" d="M155.3,10.01c-.36,1.37-1.04,2.42-1.89,3.35-1.79,1.98-4.02,3.27-6.53,4.14-2.03.7-4.14,1.03-6.25,1.35-1.37.21-2.5-.47-3.71-.84-.64-.19-1.26-.41-1.9-.61.13-.12.34-.16.54-.21,1.22-.28,2.42-.66,3.39-1.44,1.31-1.04,2.86-1.33,4.41-1.65,4.02-.82,7.89-2.12,11.55-3.98.07-.03.14-.04.37-.11Z"/>
              <path class="cls-2" d="M59.01,9.89c.99.44,1.77.8,2.56,1.14,3.55,1.55,7.22,2.69,11.03,3.37.53.09,1.02.28,1.48.6,1.57,1.09,3.22,2.02,5.29,2.36-1.47.41-2.76.88-4.04,1.36-.86.33-1.73.11-2.59-.01-3.4-.49-6.65-1.39-9.49-3.43-1.86-1.34-3.34-2.98-4.25-5.4Z"/>
              <path class="cls-2" d="M131.72,22.04c2.21-.06,4.13-.51,5.96-1.4,1.03-.5,2.18-.56,3.29-.74,3.69-.58,7.38-1.19,11.02-2.44-.05.57-.35.92-.61,1.28-2.17,2.89-5.22,4.36-8.61,5.24-1.22.32-2.45.54-3.71.66-1.9.19-3.64-.11-5.17-1.31-.62-.49-1.34-.83-2.16-1.3Z"/>
              <path class="cls-2" d="M121.88,27.03c1.6.05,3.1-.26,4.53-.9.53-.23.95.07,1.41.2,1.8.54,3.63.76,5.48.32.4-.09.82-.19,1.16-.41,1.29-.8,2.64-.58,4.03-.45,2.29.21,4.59.1,6.87-.3.12-.02.25-.04.52-.08-.54.79-1.19,1.26-1.85,1.69-2.74,1.8-5.75,2.91-9.04,2.73-3.24-.18-6.5-.17-9.69-.86-1.32-.29-2.24-1.33-3.42-1.95Z"/>
              <path class="cls-2" d="M62.56,17.49c1.21.32,2.42.63,3.62.97,2.63.74,5.32,1.12,8.01,1.54.98.15,1.95.36,2.87.82,1.6.81,3.34,1.18,5.15,1.19-1.91,1.98-4.9,2.99-7.7,2.58-2.65-.39-5.17-1.19-7.5-2.52-1.89-1.08-3.41-2.55-4.45-4.58Z"/>
              <path class="cls-2" d="M68.71,25.44c2.95.41,5.85.69,8.76.15.43-.08.86-.03,1.27.2,2.46,1.37,5,1.4,7.59.4.21-.08.41-.22.66-.1,1.41.64,2.9.97,4.62.86-1.92,1.37-3.78,2.4-6.04,2.46-2.42.07-4.84.45-7.26.38-3.58-.1-6.67-1.44-9.29-3.87-.09-.09-.18-.18-.26-.28-.03-.03-.02-.09-.04-.2Z"/>
              <path class="cls-2" d="M109.61,120.19c-.57-.5-1.13-.95-1.64-1.45-.14-.14.12-.3.23-.44.84-1.13.81-2.15-.11-3.23-.65-.77-1.54-1.2-2.35-1.74-1.24-.83-2.58-1.53-3.73-2.49-2.31-1.94-2.64-4.94-.84-7.3.23-.3.38-.35.68-.15.67.44,1.35.86,2.03,1.27.27.16.35.25.13.58-.84,1.22-.69,2.56.36,3.65.67.69,1.47,1.21,2.26,1.75,1.32.9,2.66,1.78,3.76,2.96,1.75,1.88,1.53,4.76-.48,6.36-.1.08-.19.15-.31.24Z"/>
              <path class="cls-2" d="M139.13,31.65c-2.45,3.17-11.06,4.18-14.31,1.73,1.7.11,3.34.62,5.17.53-3.45-.89-7.05-.73-10.07-2.93,1.64.04,3.07-.43,4.45-1.15.55-.29,1.1.06,1.64.17,3.25.63,6.46,1.5,9.79,1.64,1.08.05,2.16,0,3.34,0Z"/>
              <path class="cls-2" d="M93.64,30.9c-1.56,1.03-3.1,1.67-4.81,1.95-1.64.27-3.25.66-4.88,1.03,1.43.06,2.83-.29,4.25-.34-1.71,2.48-11.33,1.16-13.15-1.83,1.65-.04,3.28-.03,4.91-.22,2.53-.28,5-.87,7.47-1.48.8-.2,1.47-.24,2.27.14,1.18.56,2.47.87,3.94.75Z"/>
              <path class="cls-2" d="M129.52,16.84c-1.73.82-3.41,1.46-5.22,1.82,1.47.48,2.94.95,4.13,2.14-1.85.91-3.74,1.2-5.71.95-.89-.11-1.76-.33-2.57-.77-.46-.25-.69-.55-.66-1.09.03-.75,0-1.5-.04-2.24-.03-.56.33-.89.72-1.11,2.28-1.23,4.67-1.86,7.26-1.07.81.24,1.48.71,2.09,1.37Z"/>
              <path class="cls-2" d="M85.32,20.7c1.15-.93,2.4-1.61,3.84-1.97-1.53-.34-2.93-.94-4.29-1.63-.74-.38-.74-.38-.09-.84,2.37-1.65,4.81-1.27,7.27-.25.31.13.61.27.9.45.51.31.83.69.75,1.38-.09.74-.01,1.5,0,2.24,0,.37-.08.65-.44.82-2.57,1.17-5.13,1.39-7.7,0-.09-.05-.15-.13-.23-.2Z"/>
              <path class="cls-2" d="M107.97,127.43c-.03-.42.2-.75.33-1.1.66-1.78.27-3.06-1.31-4.16-.97-.68-1.98-1.31-2.95-2-1.12-.79-2.11-1.69-2.37-3.13-.25-1.38.15-2.59,1.03-3.67.19-.23.37-.25.6-.11.22.13.43.3.66.41.63.29.79.61.38,1.28-.59.95-.29,1.88.38,2.71.81,1.01,1.98,1.57,2.93,2.39.89.77,1.87,1.47,2.34,2.63.75,1.84-.11,3.93-2.02,4.73Z"/>
              <path class="cls-2" d="M121.34,35.15c-2.05-.09-3.71-1.01-5.28-2.13-.63-.45-1.22-.95-1.71-1.56-.72-.89-.72-.97-.08-1.89.34-.49.61-.6,1.22-.28,2.43,1.25,4.67,2.83,7.11,4.06.39.19.74.47,1.1.72.25.17.31.34-.04.48-.76.32-1.53.59-2.31.6Z"/>
              <path class="cls-2" d="M91.95,35.14c-.69-.11-1.4-.21-2.06-.53-.5-.24-.42-.42-.03-.65,1.33-.78,2.67-1.57,4.01-2.34,1.38-.8,2.8-1.55,4.16-2.37.38-.23.51-.14.7.16.88,1.31,1.14,1.21-.18,2.47-1.74,1.66-3.68,3.01-6.19,3.22-.13.01-.26.03-.41.05Z"/>
              <path class="cls-2" d="M113.41,31.78c1.46,1.65,3.35,2.66,5.19,3.74,1.65.96,3.05,2.2,4.3,3.61.16.18.42.37.29.66-.14.33-.46.4-.79.34-2.27-.38-4.41-1.03-6.06-2.76-1.51-1.58-2.51-3.43-2.94-5.59Z"/>
              <path class="cls-2" d="M108.07,69.26c0,1.09-.02,2.17,0,3.26.01.51-.15.58-.57.36-.75-.4-1.51-.79-2.28-1.15-.3-.14-.4-.34-.39-.66.02-2.22.04-4.45.04-6.67,0-.48.18-.53.55-.31.02.01.05.02.07.03q2.59,1.16,2.59,3.98c0,.39,0,.78,0,1.16h-.01Z"/>
              <path class="cls-2" d="M99.67,31.99c-.3,1.95-1.16,3.61-2.43,5.07-1.53,1.76-3.62,2.49-5.79,3.05-.42.11-1.04.26-1.29-.21-.24-.44.28-.78.57-1.08,1.2-1.29,2.52-2.44,4.08-3.3,1.76-.98,3.48-2,4.87-3.53Z"/>
              <path class="cls-2" d="M126.87,24.72c-2.64,1.63-5.36,1.79-8.19.77-.59-.21-.81-.48-.4-1.12.44-.66.67-1.44.84-2.23.06-.29.1-.52.55-.37,1.49.47,3.01.86,4.5,1.33,1,.32,1.94.78,2.7,1.63Z"/>
              <path class="cls-2" d="M126.89,18.87c1.37-.43,2.58-.84,3.81-1.18.91-.24,1.83-.06,2.75.11,1.57.3,3.03.9,4.58,1.53-2.22,1.11-4.41,1.86-6.82,1.86-.7,0-1.28-.13-1.8-.68-.67-.7-1.53-1.18-2.53-1.65Z"/>
              <path class="cls-2" d="M86.74,24.75c1.18-1.11,2.57-1.65,3.99-2.11.95-.31,1.93-.53,2.87-.88.35-.13.4.01.46.23.27.97.63,1.9,1.15,2.77.22.37,0,.49-.29.6-2.79,1.1-5.5,1.17-8.18-.61Z"/>
              <path class="cls-2" d="M86.71,18.98c-1,.4-2.05.91-2.75,1.94-.12.18-.29.22-.46.23-2.51.16-4.84-.38-6.93-1.77,3.34-2.08,6.75-2.34,10.14-.39Z"/>
              <path class="cls-2" d="M124.99,22.78c1.24-.09,2.4-.38,3.54-.75.33-.11.64-.12.97,0,1.84.7,3.54,1.65,5.18,2.89-1.34.9-2.77,1.22-4.32,1.04-.2-.02-.41-.06-.61-.1-.69-.14-1.27-.28-1.71-1.03-.64-1.08-1.66-1.88-3.05-2.05Z"/>
              <path class="cls-2" d="M131.38,36.55c-2.99,2.47-7.48,2.56-10.38-.39,1.42-.09,2.81-.27,3.96-1.21.13-.1.23-.04.35,0,1.91.75,3.85,1.39,6.06,1.6Z"/>
              <path class="cls-2" d="M129.88,10.82c-1.71.74-3.04,1.91-4.52,2.82-1.52.93-3.33,1.02-4.93,1.8,1.04-3.99,6.02-6.44,9.46-4.62Z"/>
              <path class="cls-2" d="M92.47,36.14c-3.8,3.13-7.86,2.7-10.34.48,2.02-.28,3.93-.81,5.73-1.67.24-.11.39,0,.57.09,1.22.63,2.49,1.1,4.04,1.1Z"/>
              <path class="cls-2" d="M79.51,24.89c1.6-1.2,3.28-2.19,5.09-2.93.15-.06.28-.09.44-.01,1.19.58,2.51.63,3.8.9-1.1.21-2.07.63-2.86,1.43-.14.15-.38.3-.39.47-.15,1.32-1.31,1.11-2.07,1.23-1.42.23-2.81-.07-4.01-1.07Z"/>
              <path class="cls-2" d="M83.75,10.76c2.72-1.67,7.06.15,9.1,4.68-1.69-.73-3.42-.89-4.87-1.86-1.41-.94-2.82-1.88-4.23-2.83Z"/>
              <path class="cls-2" d="M123.38,29.09c-2.88,1.77-5.56.71-7.75-.65-.31-.19-.2-.34-.01-.53.36-.36.73-.72,1.07-1.12.81-.96.79-.95,1.99-.46,1.67.7,3.17,1.68,4.71,2.75Z"/>
              <path class="cls-2" d="M90.06,29.06c1.69-1.2,3.4-2.24,5.27-3,.27-.11.45-.16.66.1.52.64,1.06,1.26,1.61,1.88.16.18.27.3,0,.47-2.11,1.36-4.81,2.24-7.53.54Z"/>
              <path class="cls-2" d="M107.95,87.1c-.13-.03-.19-.03-.23-.05-.91-.56-2.34-.88-2.62-1.76-.4-1.31-.1-2.83-.1-4.35.95.45,1.79.92,2.59,1.47.23.16.36.34.36.63,0,1.34,0,2.67,0,4.06Z"/>
              <path class="cls-2" d="M106.4,21.19c-.64-.05-1.36.09-2.07-.08-.53-.13-.91-.42-.95-.97-.04-.57.38-.84.86-.93,1.53-.28,3.07-.24,4.6-.03.5.07.99.35.91.95-.07.55-.42.9-1.03.97-.75.09-1.49.06-2.32.09Z"/>
              <path class="cls-2" d="M106.48,135.74c-.52-4.33-.57-8.52-.46-12.85.72.46,1.13.84,1.15,1.65.08,3.65-.13,7.27-.51,10.9,0,.06-.06.11-.18.31Z"/>
              <path class="cls-2" d="M129.03,15.18c3.11.03,6.11-.21,9.18-.34-2.28,2.27-7.21,2.46-9.18.34Z"/>
              <path class="cls-2" d="M105.01,93.92c.87.38,1.51.85,2.16,1.32.21.15.27.35.27.6,0,.95-.02,1.91,0,2.86.01.54-.19.57-.58.3-.53-.37-1.05-.74-1.59-1.1-.17-.11-.26-.21-.26-.42,0-1.15,0-2.31,0-3.57Z"/>
              <path class="cls-2" d="M84.71,15.28c-1.4.95-2.64,1.62-4.18,1.41-1.62-.22-3.14-.64-4.54-1.81,2.95.14,5.74.26,8.72.4Z"/>
              <path class="cls-2" d="M104.98,127.46c-2.16-1.13-2.78-3.69-1.39-5.58.19-.26.35-.38.6-.14.28.27,1.01.39.76.84-.8,1.44-.61,2.81,0,4.22.08.17.14.39.02.66Z"/>
              <path class="cls-2" d="M105.5,105.63c2.13.53,1.9,2.14,1.76,3.69-1.75-.45-2.2-1.39-1.76-3.69Z"/>
              <path class="cls-2" d="M105.86,114.79q1.32.84,1.14,3.08c-1.3-.47-1.45-.85-1.14-3.08Z"/>
            </g>
          </g>
        </g>
      </g>
    </g>
  </g>
</svg>