<?xml version="1.0" encoding="UTF-8"?>
<svg id="Layer_2" data-name="Layer 2" xmlns="http://www.w3.org/2000/svg" xmlns:xlink="http://www.w3.org/1999/xlink" viewBox="0 0 379.67 379.67">
  <defs>
    <style>
      .cls-1 {
        fill: #174972;
      }

      .cls-2 {
        fill: #fff;
      }

      .cls-3 {
        fill: none;
      }

      .cls-4 {
        fill: #1794d3;
      }

      .cls-5 {
        opacity: .28;
      }

      .cls-6 {
        clip-path: url(#clippath);
      }
    </style>
    <clipPath id="clippath">
      <path class="cls-3" d="M169.59,186.58l-8.71,29.08-.93,3.09-2.83,9.43c1.87.05,3.75.09,5.64.09,25.72,0,49.55-5.06,67.52-13.21,2.68-9.1,5.39-18.39,8.13-27.88,3.08-10.67,6.13-21.17,9.13-31.51.65-2.24,1.28-4.41,1.91-6.55l2.71-9.2c1.26-4.26,2.48-8.31,3.63-12.13,2.5-8.25,4.5-15,6-20.26,1.5-5.25,2.41-8.21,2.75-8.88.33-1,.08-1.66-.75-2-.84-.33-1.96-.46-3.38-.38-1.42.09-2.96.29-4.63.63-1.67.34-3,.59-4,.75l-84.03,15.76-9.75,29.51,24.51.5-12.93,43.17Z"/>
    </clipPath>
  </defs>
  <g id="Layer_1-2" data-name="Layer 1">
    <g>
      <path class="cls-2" d="M189.84,0C85.16,0,0,85.16,0,189.83s85.16,189.84,189.84,189.84,189.83-85.16,189.83-189.84S294.51,0,189.84,0Z"/>
      <path class="cls-4" d="M189.84,369.24c-98.92,0-179.4-80.48-179.4-179.4S90.91,10.43,189.84,10.43s179.4,80.48,179.4,179.4-80.48,179.4-179.4,179.4ZM189.84,69.35c-66.44,0-120.48,54.05-120.48,120.48s54.05,120.48,120.48,120.48,120.48-54.05,120.48-120.48-54.05-120.48-120.48-120.48Z"/>
      <path class="cls-1" d="M189.84,360.99c-94.38,0-171.16-76.78-171.16-171.16S95.46,18.68,189.84,18.68s171.15,76.78,171.15,171.15-76.78,171.16-171.15,171.16ZM189.84,61.1c-70.98,0-128.73,57.75-128.73,128.73s57.75,128.73,128.73,128.73,128.73-57.75,128.73-128.73S260.82,61.1,189.84,61.1Z"/>
      <g>
        <path class="cls-2" d="M51.64,260.48l4.17-1.98-5.55-11.71,3.56-1.69,5.55,11.71,5.13-2.43,2,4.22-16.4,7.77-8.22-17.33,3.54-1.68,6.22,13.12Z"/>
        <path class="cls-2" d="M55.58,232.71l1.49,4.42-17.19,5.81-1.49-4.42,17.19-5.81Z"/>
        <path class="cls-2" d="M45.14,212.43l4.62-4.35,1.1,5.39-4.17,3.84,1.5,7.37,4.75-.97.93,4.57-17.79,3.62-2.84-13.98c-.82-4.04,1.18-7.33,5.14-8.14,2.9-.59,5.33.45,6.76,2.65ZM44.34,225.44l-1.65-8.13c-.28-1.37-.71-3.51-3.38-2.96-2.69.55-2.26,2.68-1.98,4.05l1.65,8.13,5.36-1.09Z"/>
        <path class="cls-2" d="M42.88,199.77c1.92-.04,2.77-1.61,2.65-7.52-.1-4.9-.67-6.36-2.1-6.34-1.5.03-1.74,1.07-1.91,6.96-.21,7.91-1.39,11.07-5.46,11.15-3.99.08-5.34-3.97-5.48-10.76-.13-6.84,1.5-11.02,5.98-11.11l.09,4.67c-2,.04-2.45,2.04-2.35,6.89.09,4.59.55,5.67,1.9,5.64,1.4-.03,1.64-1.12,1.84-6.41.25-7.16.55-11.6,5.14-11.69,4.85-.1,5.92,4.47,6.05,11.19.15,7.44-1.04,11.89-6.27,12l-.09-4.66Z"/>
        <path class="cls-2" d="M38.35,154.64l-1.37,8.71,14.06,2.22-.72,4.61-14.07-2.22-1.37,8.71-3.87-.61,3.47-22.03,3.87.61Z"/>
        <path class="cls-2" d="M52.14,109.3l16.31,7.94-2.04,4.19-6.38-3.11-6.47,13.28,6.39,3.11-2.04,4.2-16.31-7.94,2.04-4.2,6.38,3.11,6.47-13.28-6.39-3.11,2.04-4.19Z"/>
        <path class="cls-2" d="M63.15,108.66c-4.8-3.62-5.37-8.34-.56-14.71,4.79-6.35,9.52-7.11,14.3-3.5,4.8,3.62,5.39,8.39.6,14.74-4.81,6.37-9.52,7.1-14.34,3.47ZM74.08,94.18c-2.94-2.22-5.43-1.76-8.36,2.13-2.94,3.89-2.71,6.39.25,8.63,2.98,2.25,5.48,1.77,8.41-2.1,2.92-3.87,2.67-6.42-.29-8.66Z"/>
        <path class="cls-2" d="M107.43,74.75l-3.51,3.07-8.2-9.37,2.52,14.34-2.54,2.22-13.87-4.4,8.2,9.37-3.51,3.07-11.95-13.66,4.74-4.15,14.15,4.64-2.72-14.64,4.74-4.15,11.95,13.66Z"/>
        <path class="cls-2" d="M107.81,57.83l1.85,3.18,12.56-7.29,1.69,2.91-12.56,7.29,1.85,3.19,12.56-7.29,1.86,3.21-16.59,9.64-9.12-15.7,16.59-9.64,1.86,3.21-12.56,7.29Z"/>
        <path class="cls-2" d="M151.45,35.2c7.02-1.74,11.21.05,12.92,5.02l-4.61,1.14c-1.13-2.74-3.6-3.3-7.37-2.37-4.61,1.14-6.14,3.26-5.25,6.86.9,3.62,3.27,4.8,7.85,3.66,3.75-.93,5.68-2.61,5.4-5.59l4.61-1.14c.81,5.22-2.04,8.78-9.06,10.53-7.75,1.92-11.87-.48-13.33-6.34-1.45-5.84,1.08-9.86,8.83-11.78Z"/>
        <path class="cls-2" d="M185.36,45.05l-10.84.73-1.68,3.99-5.12.34,8.12-18.74,6.29-.42,10.58,17.48-5.15.35-2.2-3.72ZM183.39,41.7l-4.17-7.1-3.2,7.6,7.37-.5Z"/>
        <path class="cls-2" d="M213.77,45.38l2.69,5.75-5.46-.65-2.34-5.16-7.47-.88-.57,4.81-4.63-.55,2.13-18.02,14.16,1.68c4.09.49,6.59,3.42,6.12,7.43-.35,2.94-2.1,4.92-4.63,5.59ZM201.66,40.55l8.24.98c1.39.17,3.55.42,3.87-2.28.32-2.73-1.84-2.99-3.23-3.15l-8.24-.98-.64,5.43Z"/>
        <path class="cls-2" d="M229.35,39.53l-1.04,3.53,13.93,4.11-.95,3.23-13.93-4.11-1.04,3.53,13.93,4.11-1.05,3.56-18.41-5.44,5.14-17.41,18.41,5.43-1.05,3.56-13.93-4.11Z"/>
        <path class="cls-2" d="M275.76,55.67c6.09,3.9,7.66,8.17,5.23,12.83l-3.99-2.56c1.21-2.7-.08-4.88-3.35-6.98-3.99-2.56-6.58-2.21-8.58.9-2.01,3.14-1.23,5.67,2.74,8.22,3.25,2.08,5.8,2.33,7.77.08l3.99,2.56c-3.23,4.18-7.78,4.56-13.87.66-6.72-4.31-7.81-8.94-4.56-14.03,3.24-5.06,7.9-5.99,14.62-1.68Z"/>
        <path class="cls-2" d="M291.61,72.38l-2.5,2.7,10.66,9.85-2.29,2.48-10.66-9.86-2.5,2.7,10.66,9.86-2.52,2.72-14.09-13.02,12.32-13.33,14.09,13.02-2.52,2.72-10.66-9.85Z"/>
        <path class="cls-2" d="M323.8,103.33l-14.48,10.94-3.83-5.07,3.4-18.07-10.86,8.21-2.81-3.72,14.47-10.94,3.82,5.05-3.4,18.11,10.88-8.22,2.81,3.72Z"/>
        <path class="cls-2" d="M333.86,131.09l-3.91-7.9-12.76,6.32-2.07-4.18,12.76-6.32-3.91-7.9,3.51-1.74,9.9,19.98-3.51,1.74Z"/>
        <path class="cls-2" d="M337.53,141.41l-3.53,1.04,4.09,13.93-3.23.95-4.09-13.93-3.53,1.04,4.09,13.93-3.56,1.04-5.41-18.41,17.42-5.11,5.41,18.41-3.56,1.04-4.09-13.93Z"/>
        <path class="cls-2" d="M335.92,179.79l-4.98,3.94-.62-5.46,4.48-3.46-.85-7.47-4.81.55-.53-4.64,18.03-2.06,1.62,14.16c.47,4.09-1.81,7.2-5.83,7.66-2.94.33-5.27-.91-6.5-3.22ZM337.83,166.89l.94,8.24c.16,1.39.41,3.55,3.11,3.24,2.73-.31,2.48-2.48,2.32-3.87l-.94-8.24-5.43.62Z"/>
        <path class="cls-2" d="M329.51,208.28l.54-4.64,18.03,2.08-.54,4.63-18.03-2.08Z"/>
        <path class="cls-2" d="M341.16,240.09l-17.59-4.42,1.55-6.16,16.21-8.67-13.19-3.32,1.14-4.52,17.59,4.43-1.54,6.13-16.24,8.69,13.22,3.33-1.14,4.52Z"/>
        <path class="cls-2" d="M334.16,257.26c-3.06,6.56-7.08,8.68-12.03,6.89l2.01-4.3c2.84.84,4.83-.72,6.47-4.25,2.01-4.3,1.32-6.82-2.04-8.39-3.39-1.58-5.79-.47-7.78,3.81-1.63,3.5-1.54,6.06.95,7.71l-2.01,4.3c-4.57-2.65-5.55-7.11-2.49-13.67,3.38-7.24,7.83-8.93,13.31-6.38,5.45,2.54,6.99,7.04,3.61,14.27Z"/>
        <path class="cls-2" d="M310.92,268.5l-2.94-1.85,2.36-3.75,2.94,1.85-2.36,3.75Z"/>
      </g>
      <g>
        <path class="cls-4" d="M92.53,298.32l-1.86,2.17,8.56,7.32-1.7,1.99-8.56-7.32-1.86,2.17,8.56,7.32-1.87,2.19-11.31-9.67,9.15-10.7,11.31,9.67-1.87,2.19-8.56-7.32Z"/>
        <path class="cls-4" d="M111.2,320.18c-.73,1.3-.02,2.49,3.98,4.74,3.31,1.87,4.52,2.06,5.06,1.1.57-1.02-.03-1.59-3.9-4.02-5.21-3.26-6.85-5.29-5.3-8.04,1.52-2.7,4.75-2.01,9.35.58,4.63,2.61,6.78,5.34,5.07,8.37l-3.15-1.78c.76-1.35-.4-2.44-3.68-4.29-3.1-1.75-4.01-1.86-4.52-.95-.53.95.1,1.54,3.56,3.76,4.69,2.99,7.54,4.94,5.79,8.04-1.85,3.28-5.32,2.2-9.86-.36-5.03-2.83-7.54-5.38-5.55-8.92l3.16,1.78Z"/>
        <path class="cls-4" d="M153.54,331.69l-6.5-2.11-3.41,10.5-3.44-1.12,3.41-10.5-6.5-2.11.94-2.89,16.44,5.34-.94,2.89Z"/>
        <path class="cls-4" d="M166.03,342.59l-.46,2.66-3.39-.58.46-2.66,3.39.58Z"/>
        <path class="cls-4" d="M215.36,342.32l.36,3.02-13.18,1.57-.36-3.02,4.81-.57-.76-6.59c-1.36,1.52-3.22,1.74-4.67,1.91l-.36-3.04c2.06-.24,4.79-.57,4.48-3.25l3.59-.43,1.3,10.96,4.79-.57Z"/>
        <path class="cls-4" d="M242.53,330.81c1.71,5.58-1.08,8.26-5.04,9.48-3.35,1.03-5.72,1.25-7.46,1.41l-.85-2.75c2.01-.22,4.11-.38,6.61-1.15,2.73-.84,4.06-1.86,3.56-4.69-.79,1.13-2.38,2.33-4.91,3.11-3.92,1.21-6.88.68-7.88-2.57-.96-3.13,1.11-5.5,5.86-6.96,5.77-1.77,8.77-.23,10.1,4.11ZM238.57,330.28c-.43-1.4-1.86-1.89-4.92-.95-3.27,1.01-3.97,2.15-3.54,3.55.43,1.4,1.63,1.94,4.92.93,2.96-.91,3.98-2.11,3.54-3.53Z"/>
        <path class="cls-4" d="M270.57,320.85c1.33,2.48.32,4.81-5.19,7.76-5.53,2.97-8,2.54-9.34.04-.85-1.58-.67-3.13.79-4.74-1.17-.06-2.04-.57-2.58-1.56-1.2-2.23-.01-4.19,4.28-6.5,4.27-2.29,6.58-2.21,7.78.03.53.99.48,2-.12,3.01,2.13-.32,3.54.38,4.39,1.96ZM257.28,321.05c.47.87,1.32.84,3.78-.48,2.45-1.31,2.96-2.02,2.49-2.89-.47-.87-1.34-.83-3.78.48-2.45,1.31-2.96,2.02-2.49,2.89ZM267.18,322.19c-.63-1.17-1.87-1.23-5.01.45s-3.78,2.74-3.14,3.92c.65,1.21,1.91,1.26,5.03-.42,3.12-1.67,3.77-2.76,3.13-3.96Z"/>
        <path class="cls-4" d="M295.99,304.04l-2.17,1.8,1.46,1.77-2.79,2.31-1.46-1.77-7.65,6.34-1.95-2.35,2.08-13.06,2.79-2.31,5.57,6.72,2.17-1.8,1.95,2.35ZM289.09,305.8l-3.26-3.93-1.39,7.78,4.65-3.85Z"/>
      </g>
      <g>
        <path class="cls-4" d="M182.21,258.05c-11.46,0-22.64-.9-33.25-2.62l-4.68,15.63-.27.89h69.27c.16,0,.96-2.42,2.38-7.25.81-2.75,1.77-6.03,2.87-9.78-11.39,2.03-23.59,3.13-36.32,3.13Z"/>
        <path class="cls-4" d="M169.59,186.58l-8.71,29.08-.93,3.09-2.83,9.43c1.87.05,3.75.09,5.64.09,25.72,0,49.55-5.06,67.52-13.21,2.68-9.1,5.39-18.39,8.13-27.88,3.08-10.67,6.13-21.17,9.13-31.51.65-2.24,1.28-4.41,1.91-6.55l2.71-9.2c1.26-4.26,2.48-8.31,3.63-12.13,2.5-8.25,4.5-15,6-20.26,1.5-5.25,2.41-8.21,2.75-8.88.33-1,.08-1.66-.75-2-.84-.33-1.96-.46-3.38-.38-1.42.09-2.96.29-4.63.63-1.67.34-3,.59-4,.75l-84.03,15.76-9.75,29.51,24.51.5-12.93,43.17Z"/>
        <path class="cls-1" d="M256.28,149.48c9.68,8.64,15.24,18.73,15.24,29.51,0,31.91-48.69,57.77-108.76,57.77-28.62,0-54.65-5.87-74.06-15.47,18.97,16.92,53.75,28.27,93.52,28.27,60.07,0,108.76-25.87,108.76-57.77,0-16.71-13.35-31.75-34.7-42.3Z"/>
        <g class="cls-5">
          <g class="cls-6">
            <g>
              <path class="cls-1" d="M253.09,190.45c-.05,3.2-1.76,5.94-4.3,8.23-1.08.97-2.28,1.81-3.56,2.52-.34.18-.53.3-.92.03-1.65-1.16-3.33-2.29-5.03-3.39-.54-.35-.41-.48.04-.78,1.37-.89,2.79-1.71,3.99-2.83,2.33-2.17,2.28-4.77-.14-6.87-1.84-1.6-3.93-2.81-6.13-3.84-4.12-1.92-8.28-3.74-12.4-5.67-3.38-1.59-6.64-3.39-9.32-6.09-2.61-2.63-4-5.71-3.8-9.47.23-4.33,3.53-8.13,6.97-8.83,2.93-.6,6.31.44,6.56,4.45.19,3.12-2.6,5.34-5.63,4.76-1.6-.31-2.24.42-1.77,2,.38,1.26,1.28,2.11,2.27,2.88,2.13,1.66,4.64,2.59,7.13,3.52,5.42,2.02,10.95,3.76,16,6.65,2.71,1.56,5.38,3.15,7.48,5.55,1.72,1.97,2.5,4.24,2.56,7.17Z"/>
              <path class="cls-1" d="M248.56,149.64c-2.26,1.12-4.6,1.54-6.96,1.75-1.34.12-1.65-.29-1.64-1.63.04-5.04.06-10.09.41-15.13.13-1.91.82-3.51,2.42-4.64,1.9-1.34,2.78-3.19,2.61-5.49-.28-3.92.43-7.54,2.81-10.77,3.06-4.15,7.02-6.97,11.99-8.36,5.95-1.66,11.99-3.01,17.81-5.15,7.88-2.89,15.37-6.5,21.97-11.76,1.2-.95,2.32-1.98,3.39-3.08.18-.19.35-.59.65-.4.35.22.08.57-.05.84-1.19,2.44-2.94,4.43-5.04,6.12-5.12,4.11-10.99,6.9-16.95,9.51-6.41,2.81-13.08,4.91-19.62,7.39-4.41,1.67-7.65,4.32-9.65,8.58-.69,1.47-1.3,2.8-1.15,4.57.36,4.08-1.25,7.55-3.97,10.54-.83.92-1.68,1.83-2.48,2.78-1.89,2.24-2.05,4.71-1.01,7.37,1.01,2.58,2.63,4.76,4.45,6.96Z"/>
              <path class="cls-1" d="M222.05,149.59c2.29-2.59,4.16-5.26,4.88-8.61.4-1.82,0-3.44-.96-4.98-.75-1.22-1.8-2.2-2.75-3.25-3.22-3.57-4.69-7.71-4.19-12.51.03-.25.1-.48-.03-.73-1.75-3.3-3.33-6.75-6.72-8.74-2.6-1.53-5.44-2.61-8.24-3.71-8.46-3.31-16.98-6.49-24.85-11.12-3.26-1.91-6.37-4.02-8.87-6.91-.91-1.06-1.68-2.2-2.25-3.47-.09-.19-.3-.47.03-.64.24-.12.38.14.52.27,7.27,6.98,16.07,11.33,25.35,14.9,5.46,2.1,11.12,3.56,16.7,5.27,5.48,1.68,9.83,4.86,12.71,9.89,1.63,2.85,1.96,5.95,1.74,9.15-.15,2.14.57,3.95,2.28,5.2,2.1,1.54,2.8,3.62,2.88,6.08.15,4.65.21,9.31.22,13.97,0,1.41-.35,1.88-1.79,1.73-2.28-.23-4.57-.53-6.66-1.8Z"/>
              <path class="cls-1" d="M231.93,183.84c-1.33.73-2.46,1.32-3.56,1.95-.46.26-.9.57-1.32.9-2.26,1.78-2.39,4.34-.28,6.31,2.21,2.06,4.89,3.39,7.55,4.74,3.81,1.93,7.56,3.96,10.73,6.87,4.74,4.36,3.95,11.35-1.79,15.15-.35.23-.55.16-.83-.06-1.09-.85-2.18-1.71-3.31-2.5-.49-.35-.33-.49.02-.75,3.69-2.74,2.79-5.64-.28-7.94-2.75-2.06-5.9-3.4-8.89-5.03-2.86-1.56-5.87-2.9-8.32-5.13-2.36-2.14-4.05-4.64-4.22-7.96-.2-3.88,1.44-6.8,4.42-9.18,1.27-1.01,2.31-1.21,3.76-.37,1.62.94,3.4,1.59,5.11,2.38.35.16.68.35,1.2.62Z"/>
              <path class="cls-1" d="M225.37,203.67c.2.09.36.16.51.24,1.5.81,3,1.61,4.5,2.42.43.23.72.35.09.84-2.67,2.11-2.73,4.65-.17,6.9,1.98,1.75,4.34,2.95,6.58,4.32,1.88,1.15,3.7,2.38,5.43,3.75,4.37,3.46,4.83,9.68-.94,13.47-.49.32-.85.32-1.32-.07-.68-.57-1.41-1.09-2.16-1.56-.56-.35-.68-.54-.09-1.04.98-.82,1.83-1.75,2.13-3.09.23-1.08-.06-1.95-.76-2.74-1.59-1.79-3.7-2.84-5.74-4-2.77-1.59-5.66-2.99-8.1-5.09-4.35-3.74-4.55-9.96-.45-13.93.15-.14.31-.27.48-.41Z"/>
              <path class="cls-1" d="M232.84,150.39c-.28-6.32-.21-12.65-.16-18.98,0-.98-.21-1.77-.85-2.53-.9-1.07-.48-1.99.92-2.2,1.77-.27,3.54-.23,5.31.03.98.14,1.55,1.32.88,1.97-.99.97-1.06,2.11-1.05,3.33.07,5.62.03,11.23-.15,16.84-.25,7.6-.12,15.21-.17,22.82,0,1-.3,1.03-1.06.67-.8-.37-1.62-.73-2.46-1.01-.94-.31-1.25-.85-1.24-1.86.06-4.83.03-9.67.03-14.5,0-1.53,0-3.06,0-4.58Z"/>
              <path class="cls-1" d="M239.05,173.23c2.14-1.39,4.4-2.13,6.6-3.01,1.84-.74,3.71-1.43,5.26-2.73.94-.78,1.77-1.64,2.06-2.89.36-1.53-.48-2.36-1.97-1.99-2.37.6-4.82-.83-5.47-3.19-.68-2.45.68-5.1,2.99-5.83,2.9-.93,6.22.29,8.33,3.06,2.92,3.83,2.85,9.38-.16,13.48-2.15,2.92-5.12,4.73-8.26,6.39-1.27.67-2.2.7-3.43-.15-1.8-1.25-3.81-2.17-5.95-3.15Z"/>
              <path class="cls-1" d="M305.41,89.35c-.04,4.06-1.37,7.24-3.98,9.87-2.36,2.38-5.21,4.02-8.27,5.33-4.77,2.04-9.78,3.31-14.77,4.62-2.76.72-5.55,1.36-8.33,2.03-.23.06-.5.23-.69,0-.98-1.22-2.42-1.6-4-2.19,2.64-.97,5.09-1.94,7.6-2.78,10.04-3.35,19.62-7.64,28.37-13.65,1.34-.92,2.61-1.93,4.06-3.23Z"/>
              <path class="cls-1" d="M205.7,109.14c-1.57.4-2.99.93-4.19,1.92-.25.21-.47.1-.7.05-6.97-1.82-14.02-3.36-20.73-6.08-3.35-1.36-6.47-3.08-9.08-5.64-2.35-2.31-3.86-5.06-4.25-8.36-.03-.28.01-.57.04-.85.02-.2-.05-.47.2-.55.23-.08.38.12.54.26,6.88,5.96,14.97,9.83,23.26,13.32,4.83,2.03,9.76,3.82,14.65,5.72.06.02.1.09.25.22Z"/>
              <path class="cls-1" d="M261.94,115.85c3.15-2.54,6.8-3.46,10.63-4.11,6.75-1.15,13.38-2.84,19.81-5.27,2.89-1.09,5.73-2.28,8.43-3.8,1.17-.66,2.22-1.48,3.37-2.35.11.74-.23,1.29-.43,1.85-1.26,3.42-3.66,5.86-6.7,7.74-4.17,2.58-8.77,3.96-13.56,4.74-4.09.66-8.22,1.04-12.35,1.35-1.13.08-2.25.24-3.38.36-1.96.22-3.87-.02-5.82-.52Z"/>
              <path class="cls-1" d="M209.25,115.87c-4.26,1.22-8.31.06-12.38-.23-3.43-.24-6.84-.61-10.19-1.35-5.14-1.13-10.04-2.81-14.11-6.32-2.32-2-3.94-4.42-4.59-7.42.24-.21.4-.08.53.01,4.29,3.28,9.28,5.14,14.28,6.97,6.32,2.31,12.92,3.53,19.48,4.88,1.98.41,3.67,1.46,5.38,2.47.51.3,1,.63,1.6,1Z"/>
              <path class="cls-1" d="M235.27,120.9c-4.1,0-7.29-3.15-7.3-7.24,0-4.17,3.16-7.42,7.24-7.43,4.12,0,7.44,3.23,7.44,7.25,0,4.22-3.17,7.41-7.38,7.41Z"/>
              <path class="cls-1" d="M240.47,250.01c-.54-.44-1.03-.91-1.58-1.29-.71-.5-1.32-.74-.39-1.82,1.41-1.63.97-3.57-.85-5.14-2-1.72-4.4-2.86-6.59-4.31-1.93-1.27-3.9-2.47-5.27-4.41-2.23-3.17-1.88-7.73.83-10.49.31-.32.56-.38.92-.16,1.16.68,2.32,1.37,3.48,2.05.36.21.41.38.09.7-2.09,2.09-1.75,4.97.73,7.02,2.28,1.89,4.92,3.24,7.29,4.99,1.43,1.06,2.89,2.08,3.79,3.68,1.66,2.94.78,6.57-2.07,8.96-.1.09-.23.14-.39.23Z"/>
              <path class="cls-1" d="M302.28,110.01c-.49,1.89-1.44,3.32-2.6,4.61-2.46,2.72-5.53,4.5-8.98,5.69-2.79.97-5.69,1.41-8.59,1.86-1.88.29-3.43-.65-5.1-1.16-.87-.26-1.74-.56-2.61-.84.19-.17.46-.23.75-.29,1.67-.39,3.33-.91,4.67-1.97,1.8-1.44,3.93-1.83,6.06-2.27,5.54-1.13,10.85-2.91,15.89-5.47.09-.05.2-.06.51-.16Z"/>
              <path class="cls-1" d="M169.85,109.85c1.36.61,2.44,1.1,3.53,1.57,4.88,2.13,9.92,3.7,15.17,4.64.72.13,1.41.39,2.04.83,2.16,1.5,4.43,2.78,7.28,3.25-2.03.56-3.79,1.21-5.55,1.87-1.19.45-2.38.15-3.57-.02-4.67-.67-9.14-1.91-13.05-4.71-2.56-1.84-4.59-4.1-5.85-7.43Z"/>
              <path class="cls-1" d="M269.84,126.55c3.03-.09,5.68-.7,8.2-1.93,1.41-.69,2.99-.77,4.52-1.01,5.08-.8,10.14-1.63,15.16-3.35-.07.79-.48,1.27-.84,1.75-2.99,3.98-7.18,5.99-11.84,7.21-1.67.44-3.37.74-5.11.91-2.61.26-5.01-.15-7.11-1.8-.86-.67-1.84-1.15-2.97-1.79Z"/>
              <path class="cls-1" d="M256.3,133.41c2.2.08,4.26-.36,6.22-1.23.72-.32,1.31.09,1.94.28,2.48.74,4.99,1.04,7.54.44.55-.13,1.13-.27,1.6-.56,1.77-1.11,3.63-.79,5.55-.61,3.16.29,6.32.14,9.45-.42.17-.03.34-.05.72-.11-.74,1.08-1.63,1.73-2.54,2.33-3.77,2.48-7.91,4-12.43,3.75-4.45-.25-8.94-.24-13.33-1.18-1.82-.39-3.08-1.84-4.71-2.68Z"/>
              <path class="cls-1" d="M174.73,120.29c1.66.44,3.33.87,4.98,1.33,3.61,1.01,7.32,1.55,11.02,2.12,1.35.21,2.68.49,3.95,1.13,2.2,1.11,4.59,1.63,7.09,1.64-2.62,2.72-6.74,4.11-10.6,3.55-3.64-.53-7.11-1.64-10.31-3.47-2.6-1.49-4.69-3.51-6.13-6.3Z"/>
              <path class="cls-1" d="M183.19,131.23c4.06.57,8.04.96,12.05.21.6-.11,1.18-.04,1.75.28,3.39,1.88,6.88,1.93,10.44.55.28-.11.56-.3.91-.14,1.95.88,3.99,1.33,6.35,1.18-2.65,1.88-5.19,3.3-8.31,3.39-3.33.09-6.65.63-9.99.53-4.92-.14-9.17-1.98-12.78-5.33-.13-.12-.25-.25-.36-.39-.04-.05-.03-.13-.05-.28Z"/>
              <path class="cls-1" d="M239.43,261.54c-.78-.68-1.56-1.3-2.25-1.99-.2-.19.17-.42.31-.6,1.16-1.55,1.11-2.95-.15-4.44-.89-1.06-2.12-1.65-3.23-2.4-1.71-1.14-3.54-2.1-5.13-3.43-3.18-2.67-3.63-6.8-1.15-10.04.31-.41.52-.48.93-.21.92.6,1.85,1.18,2.79,1.75.36.22.48.35.18.79-1.16,1.68-.94,3.53.49,5.02.92.95,2.02,1.67,3.11,2.4,1.82,1.23,3.66,2.44,5.18,4.07,2.41,2.58,2.1,6.55-.66,8.75-.13.11-.27.21-.42.33Z"/>
              <path class="cls-1" d="M280.03,139.77c-3.38,4.36-15.22,5.75-19.68,2.38,2.34.15,4.59.85,7.1.73-4.74-1.22-9.69-1.01-13.85-4.03,2.25.05,4.22-.6,6.11-1.58.76-.39,1.52.09,2.25.23,4.47.87,8.88,2.06,13.46,2.25,1.48.06,2.97,0,4.59,0Z"/>
              <path class="cls-1" d="M217.48,138.74c-2.14,1.42-4.27,2.29-6.62,2.69-2.25.38-4.47.9-6.71,1.41,1.97.08,3.89-.4,5.85-.47-2.36,3.41-15.58,1.6-18.09-2.52,2.27-.05,4.51-.05,6.75-.3,3.49-.39,6.88-1.19,10.27-2.03,1.1-.27,2.02-.33,3.12.19,1.62.77,3.39,1.2,5.42,1.03Z"/>
              <path class="cls-1" d="M266.82,119.41c-2.38,1.13-4.68,2.01-7.18,2.5,2.03.65,4.04,1.31,5.68,2.94-2.54,1.25-5.15,1.66-7.86,1.31-1.22-.16-2.43-.46-3.54-1.05-.63-.34-.95-.75-.91-1.5.05-1.03,0-2.06-.05-3.09-.04-.77.46-1.23,1-1.52,3.14-1.7,6.42-2.56,9.98-1.48,1.11.34,2.03.97,2.88,1.88Z"/>
              <path class="cls-1" d="M206.04,124.72c1.58-1.28,3.3-2.21,5.28-2.71-2.1-.46-4.02-1.29-5.9-2.24-1.02-.52-1.02-.53-.12-1.15,3.26-2.27,6.61-1.75,9.99-.35.42.18.84.38,1.23.62.7.43,1.14.94,1.02,1.9-.12,1.01-.02,2.06,0,3.09.01.5-.11.9-.61,1.13-3.53,1.6-7.06,1.91-10.59,0-.12-.06-.21-.18-.32-.28Z"/>
              <path class="cls-1" d="M237.17,271.49c-.04-.58.28-1.03.46-1.51.9-2.45.37-4.21-1.8-5.72-1.34-.94-2.72-1.81-4.06-2.75-1.54-1.08-2.9-2.32-3.26-4.3-.34-1.9.21-3.56,1.41-5.04.26-.32.51-.34.83-.16.3.18.59.41.91.56.87.4,1.09.84.52,1.76-.81,1.31-.4,2.58.52,3.73,1.11,1.38,2.72,2.16,4.03,3.29,1.23,1.06,2.57,2.02,3.22,3.62,1.04,2.53-.15,5.41-2.77,6.5Z"/>
              <path class="cls-1" d="M255.57,144.58c-2.82-.12-5.1-1.39-7.26-2.92-.86-.62-1.68-1.31-2.36-2.14-1-1.23-.99-1.34-.11-2.61.47-.67.83-.82,1.67-.39,3.34,1.72,6.42,3.89,9.78,5.58.53.27,1.01.65,1.51.99.35.24.43.47-.06.67-1.05.44-2.11.81-3.18.82Z"/>
              <path class="cls-1" d="M215.15,144.57c-.95-.15-1.92-.29-2.84-.73-.68-.33-.58-.57-.04-.89,1.84-1.07,3.67-2.16,5.51-3.22,1.9-1.09,3.84-2.13,5.72-3.27.52-.31.7-.19.97.21,1.2,1.8,1.57,1.67-.24,3.4-2.39,2.28-5.07,4.13-8.52,4.43-.18.01-.35.04-.56.07Z"/>
              <path class="cls-1" d="M244.67,139.95c2,2.26,4.6,3.66,7.14,5.14,2.27,1.32,4.19,3.02,5.92,4.96.22.25.58.51.41.91-.2.45-.63.55-1.08.47-3.12-.52-6.07-1.42-8.34-3.79-2.07-2.17-3.45-4.71-4.04-7.69Z"/>
              <path class="cls-1" d="M237.32,191.5c0,1.49-.03,2.99.01,4.48.02.7-.21.8-.79.5-1.04-.54-2.08-1.08-3.14-1.59-.41-.2-.54-.47-.54-.91.03-3.06.05-6.11.06-9.17,0-.66.25-.73.76-.42.03.02.06.03.1.05q3.56,1.6,3.56,5.47c0,.53,0,1.07,0,1.6h-.02Z"/>
              <path class="cls-1" d="M225.77,140.24c-.41,2.68-1.6,4.97-3.35,6.97-2.11,2.42-4.98,3.43-7.96,4.19-.58.15-1.43.35-1.77-.28-.33-.61.39-1.07.78-1.49,1.65-1.77,3.47-3.36,5.61-4.54,2.42-1.34,4.79-2.75,6.7-4.85Z"/>
              <path class="cls-1" d="M263.17,130.24c-3.64,2.24-7.37,2.47-11.26,1.06-.81-.29-1.12-.66-.54-1.54.6-.91.93-1.98,1.15-3.07.08-.4.14-.71.75-.52,2.05.65,4.14,1.18,6.19,1.83,1.38.44,2.67,1.07,3.71,2.24Z"/>
              <path class="cls-1" d="M263.21,122.19c1.88-.59,3.55-1.16,5.24-1.62,1.25-.34,2.52-.09,3.78.15,2.16.41,4.17,1.24,6.3,2.11-3.05,1.53-6.07,2.55-9.37,2.56-.96,0-1.76-.18-2.47-.94-.92-.97-2.1-1.63-3.47-2.27Z"/>
              <path class="cls-1" d="M207.98,130.28c1.63-1.52,3.54-2.26,5.49-2.9,1.31-.43,2.66-.73,3.94-1.21.48-.18.55.02.63.32.37,1.33.86,2.62,1.58,3.8.3.51,0,.67-.4.83-3.83,1.52-7.56,1.61-11.25-.84Z"/>
              <path class="cls-1" d="M207.95,122.35c-1.37.55-2.82,1.25-3.79,2.66-.17.24-.39.3-.64.31-3.45.22-6.65-.52-9.52-2.44,4.6-2.86,9.29-3.22,13.95-.54Z"/>
              <path class="cls-1" d="M260.59,127.57c1.7-.12,3.3-.52,4.88-1.03.46-.15.88-.17,1.33,0,2.53.96,4.87,2.27,7.12,3.97-1.85,1.24-3.81,1.67-5.94,1.43-.28-.03-.56-.08-.84-.13-.95-.19-1.74-.39-2.35-1.42-.88-1.49-2.29-2.58-4.19-2.82Z"/>
              <path class="cls-1" d="M269.38,146.51c-4.11,3.39-10.28,3.51-14.27-.54,1.96-.13,3.87-.38,5.45-1.67.18-.14.32-.06.49,0,2.63,1.03,5.3,1.91,8.33,2.2Z"/>
              <path class="cls-1" d="M267.31,111.12c-2.35,1.02-4.18,2.62-6.22,3.88-2.09,1.28-4.58,1.4-6.78,2.48,1.43-5.49,8.27-8.86,13-6.35Z"/>
              <path class="cls-1" d="M215.87,145.95c-5.22,4.31-10.81,3.72-14.22.66,2.77-.39,5.4-1.12,7.88-2.3.33-.16.54,0,.79.13,1.68.86,3.42,1.52,5.55,1.51Z"/>
              <path class="cls-1" d="M198.05,130.48c2.21-1.65,4.51-3.01,7.01-4.04.21-.09.38-.12.6-.02,1.64.8,3.46.86,5.22,1.23-1.51.28-2.85.86-3.93,1.97-.2.2-.52.41-.54.64-.2,1.82-1.81,1.52-2.84,1.69-1.95.32-3.86-.09-5.51-1.48Z"/>
              <path class="cls-1" d="M203.87,111.04c3.74-2.29,9.71.21,12.52,6.44-2.32-1-4.7-1.23-6.7-2.55-1.94-1.29-3.88-2.59-5.82-3.89Z"/>
              <path class="cls-1" d="M258.38,136.25c-3.97,2.44-7.64.97-10.66-.89-.43-.26-.28-.46-.01-.73.5-.5,1.01-1,1.46-1.54,1.11-1.33,1.09-1.31,2.73-.63,2.3.96,4.36,2.32,6.48,3.78Z"/>
              <path class="cls-1" d="M212.55,136.2c2.32-1.66,4.67-3.09,7.25-4.12.37-.15.61-.22.91.14.71.88,1.46,1.74,2.21,2.59.21.24.37.41-.01.65-2.9,1.88-6.62,3.08-10.36.74Z"/>
              <path class="cls-1" d="M237.15,216.03c-.18-.04-.26-.04-.31-.07-1.26-.78-3.22-1.21-3.6-2.42-.55-1.8-.14-3.9-.14-5.98,1.31.61,2.47,1.27,3.57,2.02.31.22.49.47.49.87-.01,1.84,0,3.68,0,5.58Z"/>
              <path class="cls-1" d="M235.03,125.38c-.87-.07-1.87.12-2.85-.11-.73-.17-1.25-.58-1.3-1.34-.05-.78.52-1.16,1.18-1.27,2.1-.38,4.23-.33,6.33-.04.68.09,1.36.48,1.25,1.31-.09.75-.57,1.23-1.42,1.33-1.03.12-2.05.09-3.19.12Z"/>
              <path class="cls-1" d="M235.14,282.92c-.72-5.95-.78-11.71-.63-17.67.98.63,1.55,1.16,1.58,2.27.11,5.01-.18,10-.7,14.99,0,.08-.09.16-.25.42Z"/>
              <path class="cls-1" d="M266.14,117.12c4.28.04,8.41-.28,12.62-.46-3.14,3.12-9.92,3.38-12.62.46Z"/>
              <path class="cls-1" d="M233.1,225.41c1.2.52,2.08,1.17,2.97,1.81.29.21.38.48.37.83-.01,1.31-.03,2.63,0,3.94.01.74-.27.79-.8.42-.73-.51-1.45-1.02-2.19-1.51-.23-.15-.36-.29-.36-.57.01-1.59,0-3.17,0-4.91Z"/>
              <path class="cls-1" d="M205.19,117.26c-1.93,1.31-3.63,2.23-5.75,1.94-2.22-.31-4.32-.87-6.24-2.49,4.05.19,7.89.36,11.99.55Z"/>
              <path class="cls-1" d="M233.08,271.53c-2.96-1.55-3.82-5.08-1.92-7.67.26-.35.49-.53.83-.2.39.37,1.39.54,1.05,1.16-1.1,1.98-.84,3.86,0,5.8.11.24.19.54.03.9Z"/>
              <path class="cls-1" d="M233.79,241.52c2.93.73,2.61,2.94,2.42,5.07-2.4-.62-3.02-1.91-2.42-5.07Z"/>
              <path class="cls-1" d="M234.28,254.1q1.82,1.15,1.57,4.23c-1.79-.65-1.99-1.17-1.57-4.23Z"/>
            </g>
          </g>
        </g>
      </g>
    </g>
  </g>
</svg>