<?xml version="1.0" encoding="UTF-8"?>
<svg id="Layer_2" data-name="Layer 2" xmlns="http://www.w3.org/2000/svg" viewBox="0 0 381.86 381.86">
  <defs>
    <style>
      .cls-1 {
        fill: #fff;
      }
    </style>
  </defs>
  <g id="Layer_1-2" data-name="Layer 1">
    <g>
      <g>
        <path class="cls-1" d="M184.57,272.52c-11.67,0-23.05-.92-33.85-2.67l-4.77,15.92-.27.91h70.53c.17,0,.97-2.46,2.42-7.38.82-2.8,1.8-6.14,2.92-9.96-11.6,2.07-24.02,3.18-36.98,3.18Z"/>
        <path class="cls-1" d="M259.98,161.98c9.85,8.79,15.52,19.07,15.52,30.04,0,32.49-49.58,58.82-110.74,58.82-29.14,0-55.64-5.98-75.41-15.75,19.31,17.23,54.72,28.78,95.22,28.78,61.16,0,110.74-26.34,110.74-58.82,0-17.01-13.6-32.33-35.33-43.07Z"/>
        <path class="cls-1" d="M228.02,217.57c.15-.15.32-.27.49-.42.2.1.36.17.52.25,1.53.82,3.06,1.64,4.58,2.46.44.23.73.35.1.85-2.72,2.15-2.78,4.73-.18,7.03.07.06.15.12.23.18.9-3.06,1.81-6.15,2.71-9.26-1.1-.56-2.2-1.12-3.28-1.71-2.92-1.59-5.98-2.96-8.47-5.22-2.4-2.18-4.12-4.72-4.29-8.11-.2-3.95,1.47-6.92,4.5-9.34,1.29-1.03,2.35-1.23,3.83-.37,1.65.96,3.46,1.62,5.2,2.42.35.16.69.35,1.22.63-1.36.74-2.5,1.35-3.63,1.98-.47.27-.92.58-1.34.91-2.3,1.81-2.44,4.42-.29,6.42,2.25,2.1,4.98,3.45,7.69,4.83.31.16.61.31.92.47.21-.71.41-1.42.62-2.13-.82-.42-1.63-.85-2.46-1.25-.42-.2-.55-.48-.55-.93.03-3.11.05-6.22.06-9.34,0-.67.26-.75.77-.43.03.02.06.03.1.05q3.63,1.63,3.63,5.57c0,.34,0,.67,0,1.01.37-1.26.73-2.51,1.1-3.78.25-.88.5-1.74.76-2.61-.71-.39-1.43-.77-2.16-1.11-4.19-1.96-8.43-3.81-12.62-5.78-3.45-1.62-6.76-3.45-9.49-6.2-2.65-2.68-4.07-5.82-3.87-9.64.23-4.41,3.6-8.27,7.09-8.99,2.99-.61,6.43.45,6.68,4.53.2,3.18-2.65,5.44-5.73,4.84-1.62-.32-2.28.43-1.8,2.04.38,1.29,1.3,2.15,2.31,2.93,2.17,1.69,4.72,2.63,7.26,3.58,4.93,1.84,9.94,3.45,14.63,5.88.22-.74.43-1.49.65-2.23-.98-.5-2-.96-3.05-1.45,1.32-.86,2.68-1.46,4.05-2.01,1.05-3.63,2.09-7.21,3.13-10.8-.24-.38-.45-.79-.58-1.24-.64-2.33.54-4.81,2.61-5.75.47-1.61.93-3.2,1.39-4.76l.18-.62c-.33-.27-.64-.56-.95-.87-2.11-2.21-3.51-4.8-4.12-7.83,1.77,2,4.01,3.35,6.26,4.65l.34-1.15c-1-.5-1.96-1.1-2.88-1.76-.88-.63-1.71-1.33-2.4-2.18-1.01-1.25-1-1.37-.11-2.65.48-.68.85-.84,1.7-.4,1.68.86,3.3,1.84,4.92,2.82.19-.63.37-1.26.56-1.88-1.9-.27-3.68-1.14-5.28-2.12-.43-.27-.29-.47-.01-.74.51-.51,1.03-1.01,1.49-1.57,1.13-1.35,1.11-1.34,2.78-.64.76.32,1.49.69,2.21,1.08.16-.53.31-1.05.47-1.57-.88-.15-1.78-.38-2.68-.7-.82-.3-1.14-.68-.55-1.57.61-.93.94-2.02,1.17-3.12.09-.41.14-.73.77-.52.93.3,1.88.57,2.82.83.11-.35.21-.7.32-1.04-.85-.18-1.68-.45-2.47-.88-.64-.34-.96-.76-.93-1.53.05-1.04,0-2.1-.05-3.14-.04-.79.46-1.25,1.01-1.55,1.66-.9,3.36-1.55,5.11-1.84.14-.48.28-.96.42-1.43-1.7.62-3.52.9-5.18,1.71.85-3.27,3.59-5.79,6.68-6.82.15-.51.3-1.02.44-1.52-3.93,1.72-6.88,4.3-8.75,8.28-.71,1.5-1.33,2.85-1.17,4.65.37,4.15-1.28,7.68-4.04,10.73-.85.94-1.71,1.87-2.52,2.83-1.93,2.28-2.08,4.8-1.03,7.5,1.03,2.63,2.68,4.85,4.53,7.09-2.3,1.14-4.68,1.57-7.09,1.78-1.37.12-1.68-.29-1.67-1.66.04-5.14.06-10.27.42-15.4.13-1.94.83-3.57,2.46-4.72,1.93-1.37,2.83-3.25,2.66-5.59-.28-3.99.44-7.68,2.86-10.97,3.11-4.23,7.14-7.1,12.2-8.51.82-.23,1.64-.44,2.47-.66,1.04-3.56,1.7-5.64,1.98-6.19.34-1.02.08-1.7-.76-2.04-.85-.34-2-.47-3.44-.38-1.44.09-3.02.3-4.71.64-1.7.34-3.06.6-4.07.76l-41.9,7.86s.02,0,.03,0c5.58,1.72,10,4.95,12.94,10.07,1.66,2.9,1.99,6.06,1.77,9.32-.15,2.18.58,4.02,2.32,5.29,2.14,1.57,2.85,3.68,2.93,6.19.16,4.74.22,9.48.22,14.22,0,1.44-.35,1.91-1.82,1.76-2.32-.23-4.65-.54-6.78-1.83,2.33-2.64,4.23-5.36,4.97-8.77.4-1.86,0-3.5-.97-5.07-.77-1.24-1.83-2.24-2.8-3.31-3.28-3.63-4.78-7.85-4.27-12.74.03-.25.1-.49-.03-.74-1.78-3.36-3.39-6.87-6.84-8.9-2.65-1.56-5.53-2.66-8.39-3.78-.27-.11-.55-.21-.82-.32l-2.35.44c1.53.58,3.07,1.17,4.6,1.76.06.02.11.09.25.23-1.6.4-3.05.94-4.27,1.95-.25.21-.48.11-.71.05-2.97-.78-5.95-1.51-8.92-2.29l-3.19.6c4.48,1.2,9.05,2.09,13.6,3.02,2.02.42,3.74,1.48,5.48,2.51.52.31,1.02.64,1.63,1.02-4.33,1.24-8.46.06-12.6-.24-3.49-.25-6.96-.62-10.38-1.37-3.06-.67-6.02-1.55-8.8-2.87l-3.15.59c4.47,1.83,9.07,3.23,13.85,4.08.74.13,1.43.4,2.08.84,2.2,1.52,4.51,2.83,7.41,3.31-2.06.57-3.86,1.23-5.65,1.9-1.21.46-2.43.15-3.63-.02-4.76-.69-9.31-1.95-13.28-4.8-1.77-1.27-3.28-2.75-4.48-4.62l-3.59.67-9.93,30.05,24.95.51-13.17,43.96-8.87,29.61-.94,3.15-2.88,9.61c1.91.05,3.82.09,5.74.09,23.57,0,45.56-4.18,63.07-11.07-3.78-3.85-3.77-9.74.19-13.57ZM242.32,140.79c-1,.98-1.08,2.15-1.06,3.39.07,5.72.03,11.44-.15,17.15-.25,7.74-.12,15.49-.18,23.23,0,1.02-.3,1.04-1.07.69-.82-.38-1.65-.74-2.51-1.02-.96-.31-1.27-.87-1.26-1.9.06-4.92.03-9.84.03-14.76,0-1.56,0-3.11,0-4.67-.28-6.44-.22-12.88-.17-19.32,0-.99-.21-1.81-.86-2.58-.92-1.09-.49-2.03.93-2.24,1.8-.28,3.61-.23,5.4.03,1,.15,1.58,1.34.9,2.01ZM241.59,137.32c-1.05.12-2.09.09-3.25.12-.89-.07-1.9.12-2.9-.12-.75-.18-1.27-.59-1.32-1.36-.05-.79.53-1.18,1.21-1.3,2.14-.39,4.3-.33,6.45-.04.7.09,1.38.48,1.27,1.33-.1.77-.58,1.25-1.45,1.36ZM231.15,125.51c-.01-4.25,3.22-7.56,7.37-7.57,4.19,0,7.57,3.29,7.58,7.38,0,4.3-3.23,7.54-7.52,7.55-4.18,0-7.42-3.21-7.43-7.37ZM225.51,159.67c-2.14,2.46-5.07,3.49-8.11,4.26-.59.15-1.46.36-1.81-.29-.33-.62.4-1.09.79-1.51,1.68-1.81,3.53-3.42,5.71-4.62,2.47-1.37,4.88-2.8,6.82-4.94-.42,2.73-1.63,5.06-3.41,7.1ZM226.61,148.73c.53-.32.71-.19.98.22,1.23,1.83,1.6,1.7-.25,3.46-2.43,2.32-5.16,4.21-8.67,4.51-.18.02-.36.05-.57.07-.97-.15-1.96-.3-2.89-.74-.69-.33-.59-.58-.04-.91,1.87-1.09,3.73-2.2,5.61-3.28,1.94-1.11,3.91-2.17,5.82-3.32ZM223.76,144.41c.73.9,1.49,1.77,2.25,2.64.22.25.38.41-.01.66-2.95,1.91-6.74,3.14-10.54.75,2.37-1.69,4.76-3.14,7.38-4.2.37-.15.63-.22.92.14ZM221.05,138.58c.38,1.36.88,2.66,1.61,3.87.31.51,0,.68-.4.84-3.9,1.55-7.7,1.64-11.45-.86,1.66-1.55,3.6-2.31,5.59-2.96,1.33-.44,2.7-.75,4.02-1.23.49-.18.56.02.65.33ZM209.75,141.77c-.2.21-.53.42-.55.65-.21,1.85-1.84,1.55-2.89,1.72-1.98.32-3.93-.09-5.61-1.5,2.25-1.68,4.59-3.07,7.13-4.11.21-.09.39-.12.61-.02,1.67.81,3.52.88,5.32,1.26-1.54.29-2.91.88-4,2ZM206.62,122.84c3.81-2.34,9.88.21,12.74,6.55-2.36-1.02-4.79-1.25-6.82-2.6-1.98-1.32-3.95-2.64-5.92-3.96ZM218.25,130.2c.43.18.86.38,1.26.63.71.43,1.16.96,1.04,1.93-.12,1.03-.02,2.09,0,3.14.01.51-.11.92-.62,1.15-3.6,1.63-7.19,1.95-10.78,0-.12-.06-.21-.18-.33-.28,1.61-1.3,3.36-2.25,5.38-2.76-2.14-.47-4.1-1.32-6.01-2.28-1.04-.53-1.04-.54-.12-1.17,3.32-2.31,6.73-1.78,10.18-.35ZM195.75,128.61c4.13.19,8.04.37,12.21.56-1.96,1.33-3.7,2.27-5.85,1.97-2.26-.31-4.4-.89-6.36-2.53ZM210.77,134.36c-1.4.56-2.88,1.27-3.86,2.71-.17.25-.4.3-.65.32-3.52.23-6.78-.53-9.7-2.48,4.68-2.91,9.45-3.28,14.2-.55ZM183.18,138.67c-2.65-1.52-4.78-3.57-6.24-6.41,1.69.45,3.39.88,5.07,1.36,3.68,1.03,7.45,1.57,11.22,2.15,1.38.21,2.73.5,4.02,1.15,2.24,1.13,4.67,1.66,7.22,1.67-2.67,2.77-6.86,4.19-10.79,3.62-3.71-.54-7.24-1.67-10.5-3.53ZM185.61,143.68s-.03-.13-.05-.28c4.13.58,8.19.97,12.26.21.61-.11,1.2-.04,1.78.28,3.45,1.92,7,1.96,10.63.56.29-.11.57-.31.93-.15,1.98.9,4.06,1.36,6.46,1.2-2.69,1.92-5.29,3.36-8.46,3.45-3.39.09-6.77.64-10.17.54-5.01-.15-9.34-2.02-13.01-5.42-.13-.12-.26-.25-.37-.39ZM194.45,152.17c2.31-.05,4.59-.05,6.88-.3,3.55-.4,7.01-1.21,10.46-2.07,1.12-.28,2.06-.34,3.18.19,1.65.78,3.45,1.22,5.52,1.05-2.18,1.45-4.34,2.33-6.74,2.73-2.29.38-4.56.92-6.83,1.44,2.01.08,3.97-.41,5.95-.48-2.4,3.47-15.86,1.63-18.42-2.56ZM204.35,159.06c2.83-.39,5.5-1.14,8.03-2.34.34-.16.55,0,.8.13,1.71.88,3.48,1.54,5.65,1.53-5.32,4.39-11,3.78-14.48.67Z"/>
      </g>
      <path class="cls-1" d="M190.93,381.86C85.65,381.86,0,296.21,0,190.93S85.65,0,190.93,0s190.93,85.65,190.93,190.93-85.65,190.93-190.93,190.93ZM190.93,5.15C88.49,5.15,5.15,88.49,5.15,190.93s83.34,185.78,185.78,185.78,185.78-83.34,185.78-185.78S293.37,5.15,190.93,5.15ZM190.93,320c-71.17,0-129.07-57.9-129.07-129.07S119.76,61.86,190.93,61.86s129.07,57.9,129.07,129.07-57.9,129.07-129.07,129.07ZM190.93,67.01c-68.33,0-123.92,55.59-123.92,123.92s55.59,123.92,123.92,123.92,123.92-55.59,123.92-123.92-55.59-123.92-123.92-123.92Z"/>
      <path class="cls-1" d="M190.93,372.6c-100.18,0-181.67-81.5-181.67-181.67S90.76,9.26,190.93,9.26s181.67,81.5,181.67,181.67-81.5,181.67-181.67,181.67ZM190.93,13.21C92.94,13.21,13.21,92.94,13.21,190.93s79.72,177.72,177.72,177.72,177.72-79.72,177.72-177.72S288.92,13.21,190.93,13.21ZM190.93,328.06c-75.62,0-137.13-61.52-137.13-137.13S115.32,53.8,190.93,53.8s137.13,61.52,137.13,137.13-61.52,137.13-137.13,137.13ZM190.93,57.75c-73.44,0-133.18,59.75-133.18,133.18s59.74,133.18,133.18,133.18,133.18-59.75,133.18-133.18S264.37,57.75,190.93,57.75Z"/>
      <g>
        <path class="cls-1" d="M45.84,265.1l4.38-2.08-5.83-12.3,3.74-1.77,5.83,12.3,5.39-2.55,2.1,4.43-17.22,8.16-8.63-18.2,3.71-1.76,6.53,13.77Z"/>
        <path class="cls-1" d="M49.98,235.95l1.57,4.64-18.05,6.1-1.57-4.64,18.05-6.1Z"/>
        <path class="cls-1" d="M39.01,214.65l4.85-4.57,1.15,5.66-4.37,4.03,1.57,7.74,4.99-1.02.98,4.8-18.67,3.8-2.98-14.67c-.86-4.24,1.24-7.7,5.4-8.54,3.04-.62,5.6.47,7.09,2.78ZM38.18,228.32l-1.74-8.54c-.29-1.44-.75-3.68-3.55-3.11-2.83.58-2.37,2.82-2.08,4.26l1.73,8.54,5.63-1.14Z"/>
        <path class="cls-1" d="M36.64,201.36c2.01-.04,2.91-1.69,2.78-7.9-.1-5.14-.7-6.68-2.2-6.65-1.58.03-1.83,1.12-2.01,7.31-.22,8.31-1.46,11.62-5.73,11.71-4.19.08-5.61-4.16-5.75-11.29-.14-7.18,1.57-11.57,6.28-11.67l.1,4.9c-2.1.04-2.57,2.15-2.47,7.23.1,4.82.58,5.95,2,5.92,1.47-.03,1.72-1.18,1.94-6.73.26-7.52.58-12.18,5.39-12.27,5.09-.1,6.22,4.7,6.36,11.74.15,7.81-1.09,12.49-6.58,12.6l-.1-4.9Z"/>
        <path class="cls-1" d="M31.89,153.98l-1.44,9.14,14.77,2.33-.76,4.84-14.77-2.33-1.44,9.15-4.06-.64,3.64-23.13,4.06.64Z"/>
        <path class="cls-1" d="M46.36,106.38l17.12,8.34-2.14,4.4-6.7-3.26-6.79,13.95,6.71,3.26-2.15,4.41-17.12-8.34,2.14-4.41,6.7,3.26,6.79-13.94-6.71-3.26,2.15-4.4Z"/>
        <path class="cls-1" d="M57.93,105.71c-5.04-3.8-5.64-8.75-.59-15.44,5.03-6.67,9.99-7.46,15.01-3.68,5.04,3.8,5.66,8.81.63,15.48-5.05,6.69-9.99,7.46-15.06,3.64ZM69.4,90.5c-3.09-2.33-5.7-1.84-8.78,2.24-3.08,4.08-2.85,6.71.26,9.06,3.13,2.36,5.76,1.86,8.82-2.21,3.06-4.06,2.81-6.75-.3-9.09Z"/>
        <path class="cls-1" d="M104.41,70.1l-3.69,3.23-8.6-9.83,2.64,15.05-2.66,2.33-14.57-4.62,8.6,9.83-3.69,3.23-12.55-14.34,4.98-4.36,14.86,4.87-2.85-15.37,4.98-4.36,12.55,14.34Z"/>
        <path class="cls-1" d="M104.82,52.34l1.94,3.34,13.19-7.66,1.78,3.06-13.19,7.66,1.94,3.34,13.18-7.66,1.95,3.37-17.42,10.12-9.57-16.48,17.42-10.12,1.96,3.37-13.19,7.66Z"/>
        <path class="cls-1" d="M150.63,28.58c7.37-1.83,11.76.06,13.56,5.27l-4.84,1.2c-1.19-2.87-3.77-3.47-7.74-2.48-4.84,1.2-6.44,3.42-5.51,7.2.94,3.8,3.44,5.04,8.24,3.84,3.94-.98,5.97-2.74,5.67-5.86l4.84-1.2c.85,5.48-2.14,9.22-9.51,11.05-8.14,2.02-12.46-.5-13.99-6.65-1.52-6.13,1.14-10.35,9.27-12.37Z"/>
        <path class="cls-1" d="M186.23,38.92l-11.38.77-1.76,4.18-5.38.36,8.52-19.67,6.6-.45,11.11,18.35-5.41.36-2.31-3.91ZM184.17,35.41l-4.38-7.45-3.36,7.97,7.74-.52Z"/>
        <path class="cls-1" d="M216.06,39.26l2.82,6.04-5.73-.68-2.46-5.42-7.84-.93-.6,5.06-4.86-.58,2.24-18.92,14.87,1.76c4.3.51,6.92,3.59,6.42,7.8-.37,3.08-2.2,5.17-4.86,5.87ZM203.34,34.19l8.65,1.02c1.46.17,3.73.44,4.07-2.4.34-2.87-1.93-3.14-3.39-3.31l-8.65-1.02-.68,5.7Z"/>
        <path class="cls-1" d="M232.42,33.13l-1.1,3.71,14.62,4.32-1,3.4-14.62-4.32-1.09,3.71,14.62,4.32-1.1,3.73-19.33-5.71,5.4-18.28,19.33,5.71-1.1,3.73-14.62-4.32Z"/>
        <path class="cls-1" d="M281.14,50.07c6.39,4.09,8.05,8.58,5.49,13.47l-4.19-2.69c1.27-2.84-.08-5.12-3.52-7.33-4.19-2.69-6.91-2.32-9.01.95-2.11,3.3-1.3,5.96,2.87,8.63,3.41,2.19,6.09,2.45,8.16.08l4.19,2.68c-3.39,4.39-8.17,4.78-14.56.69-7.06-4.52-8.2-9.39-4.78-14.73,3.41-5.32,8.29-6.29,15.35-1.77Z"/>
        <path class="cls-1" d="M297.79,67.61l-2.62,2.84,11.2,10.34-2.4,2.6-11.2-10.35-2.62,2.84,11.19,10.35-2.64,2.86-14.79-13.67,12.93-14,14.79,13.67-2.64,2.86-11.2-10.35Z"/>
        <path class="cls-1" d="M331.57,100.11l-15.2,11.49-4.02-5.32,3.57-18.97-11.4,8.62-2.96-3.91,15.2-11.49,4.01,5.3-3.57,19.01,11.42-8.63,2.96,3.91Z"/>
        <path class="cls-1" d="M342.14,129.25l-4.11-8.3-13.39,6.63-2.17-4.39,13.39-6.63-4.11-8.29,3.68-1.82,10.39,20.98-3.68,1.82Z"/>
        <path class="cls-1" d="M345.99,140.08l-3.71,1.09,4.3,14.63-3.4,1-4.3-14.63-3.71,1.09,4.3,14.63-3.73,1.1-5.68-19.33,18.28-5.37,5.68,19.33-3.73,1.1-4.3-14.63Z"/>
        <path class="cls-1" d="M344.3,180.38l-5.23,4.13-.66-5.73,4.71-3.63-.9-7.84-5.06.58-.56-4.87,18.93-2.16,1.7,14.87c.49,4.3-1.9,7.56-6.12,8.04-3.08.35-5.53-.96-6.82-3.39ZM346.31,166.84l.99,8.65c.17,1.46.43,3.73,3.26,3.41,2.87-.33,2.61-2.6,2.44-4.06l-.99-8.65-5.7.65Z"/>
        <path class="cls-1" d="M337.57,210.3l.56-4.87,18.93,2.19-.56,4.87-18.93-2.19Z"/>
        <path class="cls-1" d="M349.81,243.7l-18.47-4.65,1.63-6.47,17.02-9.1-13.85-3.49,1.19-4.75,18.47,4.65-1.62,6.44-17.05,9.12,13.88,3.49-1.19,4.75Z"/>
        <path class="cls-1" d="M342.46,261.72c-3.21,6.88-7.43,9.12-12.63,7.24l2.11-4.52c2.98.88,5.07-.76,6.79-4.46,2.11-4.52,1.39-7.16-2.14-8.81-3.55-1.66-6.08-.49-8.17,4-1.71,3.68-1.62,6.36,1,8.09l-2.11,4.51c-4.8-2.78-5.83-7.46-2.62-14.35,3.54-7.6,8.22-9.38,13.97-6.7,5.72,2.67,7.34,7.39,3.79,14.99Z"/>
        <path class="cls-1" d="M318.06,273.52l-3.09-1.94,2.48-3.94,3.09,1.94-2.48,3.94Z"/>
      </g>
      <g>
        <path class="cls-1" d="M92.27,306.81l-1.85,2.16,8.52,7.29-1.69,1.98-8.52-7.29-1.85,2.16,8.52,7.29-1.86,2.18-11.26-9.63,9.11-10.66,11.26,9.63-1.86,2.18-8.52-7.29Z"/>
        <path class="cls-1" d="M110.85,328.57c-.73,1.29-.02,2.47,3.96,4.72,3.3,1.86,4.5,2.05,5.04,1.09.57-1.01-.03-1.58-3.88-4-5.18-3.24-6.82-5.27-5.28-8.01,1.51-2.69,4.73-2,9.31.57,4.61,2.59,6.75,5.32,5.05,8.34l-3.14-1.77c.76-1.34-.4-2.43-3.66-4.27-3.09-1.74-3.99-1.86-4.5-.95-.53.94.1,1.53,3.55,3.74,4.67,2.97,7.51,4.92,5.77,8.01-1.84,3.26-5.3,2.19-9.82-.36-5.01-2.82-7.51-5.36-5.53-8.88l3.14,1.77Z"/>
        <path class="cls-1" d="M153.01,340.03l-6.47-2.1-3.4,10.45-3.43-1.11,3.4-10.45-6.47-2.1.93-2.87,16.37,5.32-.94,2.88Z"/>
        <path class="cls-1" d="M165.45,350.88l-.46,2.64-3.37-.58.46-2.64,3.37.58Z"/>
        <path class="cls-1" d="M214.57,350.62l.36,3-13.13,1.56-.36-3,4.79-.57-.76-6.56c-1.35,1.51-3.2,1.73-4.65,1.9l-.36-3.02c2.05-.24,4.77-.57,4.46-3.23l3.58-.43,1.3,10.92,4.77-.57Z"/>
        <path class="cls-1" d="M241.62,339.16c1.71,5.55-1.07,8.23-5.02,9.44-3.33,1.02-5.69,1.25-7.43,1.4l-.84-2.74c2.01-.22,4.09-.38,6.58-1.14,2.72-.84,4.04-1.85,3.55-4.67-.79,1.12-2.37,2.32-4.89,3.1-3.91,1.2-6.85.68-7.85-2.56-.96-3.12,1.1-5.47,5.83-6.93,5.74-1.77,8.73-.23,10.06,4.09ZM237.68,338.63c-.43-1.4-1.86-1.88-4.9-.95-3.25,1-3.95,2.14-3.52,3.53.43,1.4,1.62,1.93,4.89.93,2.95-.91,3.96-2.1,3.53-3.52Z"/>
        <path class="cls-1" d="M269.54,329.24c1.33,2.47.32,4.79-5.17,7.73-5.51,2.96-7.97,2.52-9.3.04-.84-1.57-.67-3.12.79-4.72-1.17-.06-2.03-.57-2.56-1.56-1.19-2.22-.01-4.18,4.26-6.47,4.25-2.28,6.55-2.2,7.74.03.53.99.48,1.99-.12,3,2.12-.32,3.52.38,4.37,1.95ZM256.3,329.44c.46.87,1.31.84,3.77-.48,2.44-1.31,2.95-2.01,2.48-2.88-.46-.86-1.33-.83-3.77.48-2.43,1.31-2.94,2.01-2.48,2.88ZM266.17,330.58c-.63-1.17-1.86-1.23-4.99.45s-3.77,2.73-3.13,3.91c.64,1.2,1.9,1.25,5.01-.41,3.11-1.67,3.76-2.74,3.11-3.94Z"/>
        <path class="cls-1" d="M294.85,312.51l-2.16,1.79,1.46,1.76-2.78,2.3-1.46-1.76-7.62,6.31-1.94-2.34,2.07-13,2.78-2.3,5.55,6.69,2.16-1.79,1.94,2.34ZM287.98,314.25l-3.25-3.92-1.38,7.75,4.63-3.83Z"/>
      </g>
    </g>
  </g>
</svg>